<svg xmlns="http://www.w3.org/2000/svg"  width="460" height="160" viewBox="-33.666495 -15.046675 291.77629 90.28005"><defs><radialGradient r="29.5804" gradientTransform="matrix(1 0 0 -1 134.4463 453.7334)" cx="-122.3936" cy="442.7231" gradientUnits="userSpaceOnUse" id="a"><stop offset="0" stop-color="#fff"/><stop offset="1" stop-color="#007808"/></radialGradient></defs><path fill="#0b4819" d="M5.402 6.763v6.778L.511 12.364V5.078zm3.728 9.452v25.178l-4.675.924V15.226z"/><path fill="#105c80" d="M15.306 24.71l17.82-20.093 28.225-2.185-41.517 43.274 5.527.291 30.155-30.843v29.151l-3.35 3.149 8.496.459v8.068l-26.65-2.064 13.585-13.179v-6.495L28.175 53.465 4.919 51.667 42.222 11.55l-6.139.332L9.13 41.393V16.215l2.553-3.014-6.281.34V6.763l21.919-1.697-12.015 13.78z"/><path fill="#0b4819" d="M11.683 13.201L9.13 16.215l-4.675-.989 2.704-3.255z"/><path fill="#084010" d="M15.306 24.71l-4.302-.352v-6.319l4.302.807z"/><path fill="#0c541e" d="M25.361 45.997l-3.647 1.349-5.894-.34 4.014-1.3z"/><path fill="#1a5c34" d="M15.306 18.846l-4.302-.807L23.808 3.106l3.513 1.96z"/><path fill="#0b4819" d="M33.126 4.617L15.306 24.71l-4.302-.352L30.022 2.58z"/><path fill="#1a5c34" d="M9.13 41.393l-4.675.924 28.74-31.885 2.888 1.45z"/><path fill="#0b4819" d="M42.222 11.55L4.919 51.667 0 53.344l39.798-43.302z"/><path fill="#1a5c34" d="M28.175 53.465l-3.454 1.972 20.876-20.76 2-.434z"/><path fill="#0b4819" d="M47.597 34.243v6.495l-2 .999v-7.06z"/><path fill="#0b4819" d="M47.597 40.738L34.012 53.917l-3.039 2.048 14.624-14.228z"/><path fill="#13802d" d="M52.166 47.454l3.35-3.149-1.348 1.343-3.63 3.411z"/><path fill="#0b4819" d="M55.516 15.154L25.361 45.997l-3.647 1.349L54.168 13.9z"/><path fill="#084010" d="M55.516 44.305l-1.348 1.343V13.9l1.348 1.254zm5.146 11.676l-.903 2.422v-8.799l.903-1.691z"/><path fill="#1a5c34" d="M19.834 45.706l-4.014 1.3L60.507 0l.844 2.432z"/><path fill="url(#a)" d="M11.004 24.358L30.022 2.58 60.507 0 15.82 47.006l5.894.34L54.168 13.9v31.748l-3.63 3.411 9.221.545v8.799l-28.786-2.438 14.624-14.228v-7.06l-20.876 20.76L0 53.344l39.798-43.302-6.603.39-28.74 31.885V15.226l2.704-3.255-6.648.393V5.078l23.297-1.972-12.804 14.933z"/><path d="M87.8545 36.106H77.6048v14.2784H72.085v.0026-34.4899h19.4136v6.4381H77.6048v7.3563h10.2497zm21.5143 0H99.1166v14.2784h-5.5173v.0026-34.4899h19.4137v6.4381H99.1166v7.3563h10.2522zm12.1411-.4342V50.387h-6.438V28.0617l6.438-.6906v2.0457c1.4414-1.3525 3.2805-2.0222 5.5172-2.0222 2.9117 0 5.1353.8816 6.6683 2.6449 1.6874-1.7633 4.2145-2.6449 7.5865-2.6449 2.9117 0 5.1353.8816 6.6683 2.6449 1.533 1.7658 2.2995 3.7932 2.2995 6.0927V50.387h-6.438V37.741c0-1.533-.3454-2.7206-1.036-3.563-.6906-.8397-1.8077-1.2844-3.3564-1.3341-1.2714.0915-2.3753.9339-3.3119 2.5297a9.213 9.213 0 00-.115 1.4519v13.5668h-6.4382v-12.646c0-1.533-.3453-2.7207-1.036-3.563-.6906-.8398-1.8024-1.2871-3.351-1.3368-1.4101.089-2.6292 1.0307-3.6573 2.8253zm31.9759 24.3711V28.0617l6.438-.6906v1.839c1.7162-1.2295 3.4035-1.839 5.0595-1.839 3.5264 0 6.323 1.1458 8.3923 3.4453 2.0693 2.3021 3.1052 4.981 3.1052 8.047 0 3.066-1.036 5.7474-3.1052 8.047-2.0693 2.2994-4.8659 3.4479-8.3923 3.4479-2.2995-.157-3.9842-.7744-5.0594-1.8627v11.5656zm6.438-23.2436v3.7279c.3061 2.5715 1.915 4.0862 4.8293 4.5257 3.6781-.2904 5.7474-2.2 6.2079-5.7239-.1544-4.2955-2.2237-6.514-6.208-6.6709-2.9142.4604-4.523 1.8417-4.8291 4.1412zm17.5799 2.0902c0-3.372 1.0726-6.1346 3.2177-8.2771 2.1452-2.1452 4.9051-3.2178 8.2772-3.2178 3.372 0 6.0535 1.0726 8.047 3.2178 1.9934 2.1425 2.99 4.905 2.99 8.2771v2.2995H184.172c.1543 1.227.6906 2.1844 1.6088 2.875.9183.6907 1.9935 1.036 3.2178 1.036 2.1451 0 4.0627-.6095 5.7474-1.8364l3.6782 3.6755c-1.6874 2.2995-4.8292 3.448-9.4282 3.448-3.3721 0-6.132-1.0726-8.2772-3.2178-2.1452-2.1451-3.2151-4.905-3.2151-8.2798zm14.7152-5.1719c-.9208-.6906-1.9934-1.036-3.2177-1.036-1.2243 0-2.2995.3454-3.2177 1.036-.9183.6906-1.3787 1.6481-1.3787 2.875h9.198c-.0052-1.2269-.4656-2.1844-1.3839-2.875zm32.2244-5.6323V48.548c0 3.2177-.9574 5.9096-2.875 8.0705-1.9175 2.1608-4.3295 3.304-7.2438 3.4296l-1.3787.1386c-4.4446-.0915-7.8952-1.363-10.3464-3.8168l2.9901-3.448c1.6874 1.2296 3.7331 1.915 6.1399 2.0694 2.4538 0 4.1124-.5756 4.9757-1.724.8685-1.1458 1.3002-2.4146 1.3002-3.7906v-1.1485c-1.7162 1.3787-3.7096 2.0693-5.9777 2.0693-3.5264 0-6.1686-1.036-7.9318-3.1052-1.7632-2.0693-2.6449-4.8659-2.6449-8.3923 0-3.372.9575-6.1346 2.875-8.2772 1.9176-2.1451 4.6357-3.2177 8.1621-3.2177 2.6056.157 4.4447.8502 5.5173 2.0928v-2.0928zm-6.438 12.8735v-3.7252c-.3061-2.5716-1.915-4.0863-4.8293-4.5258-3.8325.1387-5.9017 2.0458-6.2078 5.724.1543 4.2955 2.2236 6.5139 6.2078 6.6708 2.9143-.463 4.5232-1.8443 4.8293-4.1438z"/></svg>