<?xml version="1.0" encoding="UTF-8"?>
<svg version="1.1" xmlns="http://www.w3.org/2000/svg"  width="460" height="160" viewBox="0 0 1200 1200" fill="none">
<path d="M0 0 C396 0 792 0 1200 0 C1200 396 1200 792 1200 1200 C804 1200 408 1200 0 1200 C0 804 0 408 0 0 Z " fill="#AEA1EA" transform="translate(0,0)"/>
<path d="M0 0 C1.70736328 0.88365234 1.70736328 0.88365234 3.44921875 1.78515625 C4.06079834 2.10000977 4.67237793 2.41486328 5.30249023 2.73925781 C12.02759499 6.2387506 18.60107217 10.00806822 25.13671875 13.84765625 C26.11125 14.27949219 27.08578125 14.71132813 28.08984375 15.15625 C28.7653125 15.71441406 29.44078125 16.27257812 30.13671875 16.84765625 C29.9296875 19.9296875 29.9296875 19.9296875 29.32421875 23.66015625 C29.14573131 26.85262089 29.50489493 29.07171782 31.13671875 31.84765625 C37.88573292 37.33543662 46.21316567 40.75333688 54.05908203 44.37207031 C64.37096332 49.3161454 64.37096332 49.3161454 66.13671875 52.84765625 C66.13597776 55.16453662 66.07909212 57.48148163 65.99609375 59.796875 C65.96462578 61.95985636 65.94471865 64.12276823 65.92529297 66.28588867 C65.89972129 67.77697646 65.85275176 69.26786122 65.78369141 70.75756836 C65.56603168 75.73004343 65.58882674 80.08202109 67.13671875 84.84765625 C70.50396527 87.63898519 73.16672732 88.93007379 77.23925781 90.49926758 C80.13671875 91.84765625 80.13671875 91.84765625 81.03198242 93.55371094 C81.28236735 99.03766621 81.30926372 104.4859218 81.22436523 109.97387695 C81.20762138 111.51284851 81.20693264 113.05207966 81.22241211 114.59106445 C81.3429602 127.25132249 81.3429602 127.25132249 78.69555664 130.75488281 C76.57607454 132.09522789 74.47323914 132.93825422 72.13671875 133.84765625 C70.2430074 134.94488841 68.36489821 136.06932388 66.5 137.21484375 C64.48427977 138.38619387 62.46733039 139.55543109 60.44921875 140.72265625 C58.92071289 141.63144531 58.92071289 141.63144531 57.36132812 142.55859375 C56.37583984 143.12578125 55.39035156 143.69296875 54.375 144.27734375 C53.48852783 144.79538574 52.60205566 145.31342773 51.6887207 145.84716797 C47.63833839 147.43508213 45.08962963 146.24291561 41.18554688 144.62353516 C37.21246465 143.61244809 35.88388961 144.44460202 32.35546875 146.43359375 C31.27249512 147.03179932 30.18952148 147.63000488 29.07373047 148.24633789 C27.37240967 149.22461548 27.37240967 149.22461548 25.63671875 150.22265625 C24.46226234 150.87506187 23.28663751 151.52536847 22.10986328 152.17358398 C17.20166705 154.89218801 12.34268691 157.67600594 7.59765625 160.671875 C6.97310547 161.05875488 6.34855469 161.44563477 5.70507812 161.84423828 C4.14076377 162.82892635 2.60219514 163.85420058 1.06640625 164.8828125 C-2.42824548 166.0337178 -4.26454991 165.48434174 -7.58300781 164.01196289 C-12.19540476 161.65687499 -16.69488728 159.13059845 -21.17578125 156.53515625 C-24.09614501 154.85832729 -27.01780204 153.18398657 -29.94384766 151.51708984 C-31.93799138 150.37676916 -33.92437255 149.22279327 -35.90380859 148.05712891 C-36.87398926 147.49944824 -37.84416992 146.94176758 -38.84375 146.3671875 C-39.71281982 145.85905518 -40.58188965 145.35092285 -41.47729492 144.82739258 C-44.18844734 143.71413619 -45.18786316 143.77033337 -47.86328125 144.84765625 C-48.50265625 145.21890625 -49.14203125 145.59015625 -49.80078125 145.97265625 C-52.60627908 147.16286745 -53.92940062 146.65524372 -56.86328125 145.84765625 C-59.00483745 144.81130748 -61.11071707 143.69977536 -63.1875 142.5390625 C-63.77497513 142.21228012 -64.36245026 141.88549774 -64.96772766 141.54881287 C-66.20237311 140.86022486 -67.4351926 140.16835375 -68.66625977 139.47338867 C-70.55120193 138.40991891 -72.4420017 137.35752401 -74.33398438 136.30664062 C-83.56771178 131.14322572 -83.56771178 131.14322572 -85.86328125 128.84765625 C-86.14889518 126.19399174 -86.31214476 123.6494418 -86.375 120.98828125 C-86.39351517 120.20628357 -86.41203033 119.42428589 -86.43110657 118.61859131 C-86.46317375 116.961006 -86.48880947 115.3032858 -86.50854492 113.64550781 C-86.53659112 111.95365726 -86.5842942 110.26201296 -86.65209961 108.57128906 C-87.21287336 94.54783206 -87.21287336 94.54783206 -83.95166016 90.43945312 C-81.6219171 88.86686462 -79.49220279 87.82281711 -76.86328125 86.84765625 C-75.52460651 86.19178113 -74.18936321 85.52863265 -72.86328125 84.84765625 C-72.85393555 83.89922852 -72.84458984 82.95080078 -72.83496094 81.97363281 C-72.79088894 78.44700867 -72.72925342 74.92159422 -72.65576172 71.39550781 C-72.6275759 69.87088194 -72.60634936 68.34611059 -72.59228516 66.82128906 C-72.57082076 64.62619689 -72.52415956 62.43284914 -72.47265625 60.23828125 C-72.45170898 58.91860352 -72.43076172 57.59892578 -72.40917969 56.23925781 C-71.76424776 52.23237304 -71.07264071 51.24825186 -67.86328125 48.84765625 C-65.65716726 47.48372112 -63.4789046 46.21642964 -61.19921875 44.9921875 C-60.56593658 44.64508224 -59.93265442 44.29797699 -59.28018188 43.94035339 C-57.26970177 42.84041827 -55.25412486 41.75022465 -53.23828125 40.66015625 C-51.87595878 39.91664431 -50.51397587 39.17250985 -49.15234375 38.42773438 C-39.71063757 33.27133441 -39.71063757 33.27133441 -36.86328125 31.84765625 C-36.58430802 28.60973743 -36.54777991 25.39356487 -36.5 22.14453125 C-35.67799606 17.88826544 -34.07350162 16.70315767 -30.86328125 13.84765625 C-28.04833984 12.01074219 -28.04833984 12.01074219 -25.01171875 10.33203125 C-23.9134375 9.72101563 -22.81515625 9.11 -21.68359375 8.48046875 C-20.54664063 7.85914063 -19.4096875 7.2378125 -18.23828125 6.59765625 C-16.52125 5.64246094 -16.52125 5.64246094 -14.76953125 4.66796875 C-3.66205235 -1.4738137 -3.66205235 -1.4738137 0 0 Z " fill="#8D57A4" transform="translate(602.86328125,405.15234375)"/>
<path d="M0 0 C2.17924272 1.08218953 4.216806 2.2138442 6.296875 3.46484375 C7.57475116 4.21488315 8.85274875 4.96471569 10.13085938 5.71435547 C10.77917725 6.09823425 11.42749512 6.48211304 12.09545898 6.87762451 C14.90563947 8.53370735 17.74188849 10.14295483 20.578125 11.75390625 C35.33584281 20.17670537 50.06963357 28.63965905 64.78222656 37.14111328 C69.10247643 39.63689344 73.42422987 42.13006297 77.74609375 44.62304688 C80.99496496 46.49709563 84.24357632 48.37159428 87.4921875 50.24609375 C91.85065388 52.76069436 96.21012191 55.27354661 100.5703125 57.78515625 C113.06149319 64.982314 125.53421037 72.20979271 137.98046875 79.484375 C142.25038607 81.98004735 146.52440348 84.46853919 150.80078125 86.953125 C151.91114746 87.59886475 153.02151367 88.24460449 154.16552734 88.90991211 C156.30969496 90.1567035 158.45452812 91.40235119 160.60009766 92.64672852 C162.03361572 93.48095337 162.03361572 93.48095337 163.49609375 94.33203125 C164.34357178 94.82421143 165.1910498 95.3163916 166.06420898 95.82348633 C168 97 168 97 169 98 C169.11767736 100.50277839 169.1700697 102.97873993 169.18081665 105.48283386 C169.19162343 106.67220447 169.19162343 106.67220447 169.20264852 107.88560277 C169.2255105 110.56328776 169.24098549 113.24096335 169.25634766 115.91870117 C169.27078802 117.83027377 169.28554554 119.74184399 169.30059814 121.65341187 C169.4309681 139.1171908 169.49674298 156.58161706 169.54844093 174.04578686 C169.58736906 186.96234715 169.65574301 199.87803664 169.76298869 212.79421443 C169.83579419 221.86770005 169.87426838 230.94094723 169.88746679 240.01471311 C169.896342 245.43793377 169.920676 250.86007891 169.98213577 256.28297997 C170.03931377 261.38622841 170.05407445 266.48784508 170.03626251 271.59136581 C170.03714211 273.46432465 170.05344456 275.33734935 170.08630753 277.21002007 C170.32210315 291.38246297 170.32210315 291.38246297 167.02824593 295.41235733 C164.71963364 296.98261062 162.6071448 298.02625688 160 299 C159.04689941 299.56509277 158.09379883 300.13018555 157.11181641 300.71240234 C156.28343262 301.16566895 155.45504883 301.61893555 154.6015625 302.0859375 C153.64185547 302.61574219 152.68214844 303.14554688 151.69335938 303.69140625 C150.68080078 304.24699219 149.66824219 304.80257813 148.625 305.375 C139.49056645 310.43457308 130.46281754 315.64254831 121.5 321 C111.77359247 326.80957393 101.96053387 332.42687419 92.0559082 337.92626953 C84.46590039 342.15074363 76.97608141 346.52222809 69.51391602 350.96777344 C62.09878468 355.37558703 54.62158041 359.67027664 47.125 363.9375 C37.01268177 369.69372403 26.93643352 375.50668408 16.90087891 381.39624023 C15.10713869 382.44754041 13.30590652 383.48619464 11.49633789 384.51000977 C8.98114347 385.95049682 8.98114347 385.95049682 6.73608398 387.70678711 C4.43864841 389.3344896 2.74887104 390.36851423 0 391 C-4.33405523 389.86004592 -7.81134934 387.58843706 -11.5625 385.1875 C-12.65312744 384.53257568 -13.74375488 383.87765137 -14.86743164 383.20288086 C-17.14514691 381.83316816 -19.41152266 380.4537591 -21.66894531 379.05175781 C-25.737691 376.5456204 -29.86337293 374.14893672 -34.0012207 371.75927734 C-36.97806053 370.03906143 -39.94498552 368.30274265 -42.91015625 366.5625 C-49.21570465 362.86786663 -55.54297534 359.2115276 -61.875 355.5625 C-62.95370361 354.94068848 -64.03240723 354.31887695 -65.14379883 353.67822266 C-68.42892251 351.78500101 -71.71439728 349.89239017 -75 348 C-88.7911725 340.05677572 -102.56987182 332.09420631 -116.30859375 324.06054688 C-122.72524645 320.31325565 -129.16604635 316.61132222 -135.625 312.9375 C-143.20334167 308.6240895 -150.73972629 304.24340292 -158.25 299.8125 C-159.20986816 299.24716553 -160.16973633 298.68183105 -161.15869141 298.09936523 C-162.03960449 297.57802002 -162.92051758 297.0566748 -163.828125 296.51953125 C-165.0022998 295.82500854 -165.0022998 295.82500854 -166.20019531 295.11645508 C-168 294 -168 294 -169 293 C-169.09774692 290.47064748 -169.1299541 287.96862583 -169.12025452 285.43882751 C-169.12110894 284.63759683 -169.12196337 283.83636614 -169.12284368 283.01085573 C-169.12450093 280.30531066 -169.11897314 277.59982654 -169.11352539 274.89428711 C-169.11324355 272.96312969 -169.1134012 271.03197217 -169.1139679 269.10081482 C-169.11425598 263.84070191 -169.10835757 258.58061159 -169.10139394 253.32050395 C-169.09516212 247.82984578 -169.09455674 242.33918716 -169.09336853 236.848526 C-169.0902547 226.44334309 -169.08204063 216.03817063 -169.07201904 205.63299233 C-169.06085949 193.79039054 -169.05534785 181.94778826 -169.05032361 170.10518253 C-169.03985805 145.73678255 -169.02225763 121.36839186 -169 97 C-168.42670708 96.68549487 -167.85341415 96.37098974 -167.26274872 96.04695415 C-164.63770661 94.60640208 -162.01318573 93.16490292 -159.38867188 91.72338867 C-158.48687195 91.22868828 -157.58507202 90.73398788 -156.65594482 90.22429657 C-150.21067029 86.68301879 -143.83050264 83.05546769 -137.5 79.3125 C-128.55707756 74.05985102 -119.57427009 68.88313374 -110.5625 63.75 C-102.48593032 59.14769529 -94.42739744 54.51991829 -86.42773438 49.78491211 C-76.79811631 44.09286836 -67.08861391 38.53764909 -57.39501953 32.95556641 C-51.92830016 29.80667944 -46.46427815 26.6531206 -41 23.5 C-38.86458583 22.26822484 -36.72916915 21.03645403 -34.59375 19.8046875 C-30.56489144 17.48043948 -26.53669509 15.15505139 -22.50927734 12.82830811 C-20.08952335 11.43041399 -17.66952737 10.03293911 -15.24951172 8.63549805 C-13.53198948 7.64347676 -11.81481948 6.65084571 -10.09765625 5.65820312 C-8.54884766 4.76391602 -8.54884766 4.76391602 -6.96875 3.8515625 C-5.59879883 3.05999756 -5.59879883 3.05999756 -4.20117188 2.25244141 C-2.82011309 1.46663489 -1.42121505 0.71060752 0 0 Z M-6.0390625 20.7890625 C-7.08175293 21.39355225 -8.12444336 21.99804199 -9.19873047 22.62084961 C-10.32939941 23.28221924 -11.46006836 23.94358887 -12.625 24.625 C-13.80723318 25.31231105 -14.98969071 25.99923631 -16.17236328 26.68579102 C-19.78494319 28.7847749 -23.39289728 30.89162127 -27 33 C-28.5478418 33.90419678 -28.5478418 33.90419678 -30.12695312 34.82666016 C-31.10083984 35.39562012 -32.07472656 35.96458008 -33.078125 36.55078125 C-34.03823486 37.11168457 -34.99834473 37.67258789 -35.98754883 38.25048828 C-37.92514109 39.38253889 -39.86247512 40.51503157 -41.79956055 41.64794922 C-50.25502824 46.58521583 -58.75515277 51.44210148 -67.262146 56.2897644 C-74.03420581 60.1495664 -80.79484074 64.02481057 -87.5 68 C-94.80732893 72.33218893 -102.18215494 76.54390904 -109.5625 80.75 C-118.85435576 86.04752252 -128.13086354 91.36945871 -137.375 96.75 C-138.36056885 97.32202148 -139.3461377 97.89404297 -140.36157227 98.48339844 C-141.74107056 99.28825684 -141.74107056 99.28825684 -143.1484375 100.109375 C-143.94427246 100.57311523 -144.74010742 101.03685547 -145.56005859 101.51464844 C-146.36523926 102.00481445 -147.17041992 102.49498047 -148 103 C-149.02266653 103.54378799 -150.04533306 104.08757599 -151.09898949 104.64784241 C-154.28079732 106.74403649 -154.28079732 106.74403649 -154.79415321 110.22294617 C-154.81459883 111.50893204 -154.83504444 112.79491791 -154.85610962 114.11987305 C-154.88496642 115.19648256 -154.88496642 115.19648256 -154.91440618 116.29484177 C-154.97113661 118.70083793 -154.98493122 121.10512032 -154.99853516 123.51171875 C-155.02958626 125.23670136 -155.06297961 126.96164318 -155.09854126 128.6865387 C-155.18580908 133.37491024 -155.23272909 138.06281527 -155.26699495 142.75184631 C-155.2890371 145.68412047 -155.31760923 148.61626362 -155.34803391 151.54846191 C-155.4408437 160.73106976 -155.50795877 169.91336476 -155.54006541 179.09638786 C-155.57749439 189.68204885 -155.70013006 200.26216309 -155.89706957 210.84603214 C-156.04416595 219.03570489 -156.11384008 227.22381145 -156.12579191 235.41478634 C-156.13466543 240.30342822 -156.17578197 245.18658802 -156.29799271 250.07382202 C-157.68167182 269.21708534 -157.68167182 269.21708534 -152.04063034 286.78073692 C-147.40873278 291.02193542 -142.3258012 293.32900711 -136.38366699 295.19818687 C-133.00559078 296.33449738 -130.28165548 298.02660506 -127.2734375 299.92578125 C-125.30833168 301.0564969 -123.34218804 302.18541083 -121.375 303.3125 C-119.1536177 304.58979482 -116.93226438 305.86714004 -114.7109375 307.14453125 C-113.60073242 307.78213379 -112.49052734 308.41973633 -111.34667969 309.07666016 C-105.89361389 312.210542 -100.44706016 315.35569521 -95 318.5 C-88.47773279 322.26375263 -81.95486228 326.02644628 -75.4296875 329.78515625 C-63.96086671 336.39338156 -52.50786571 343.02717775 -41.08032227 349.70654297 C-32.22755283 354.8770831 -23.3485288 360.00145894 -14.46289062 365.11523438 C-13.42970703 365.71013672 -12.39652344 366.30503906 -11.33203125 366.91796875 C-10.42171143 367.44156982 -9.5113916 367.9651709 -8.57348633 368.50463867 C-6.7953074 369.53787517 -5.04230491 370.61523864 -3.31201172 371.72680664 C-1.07961819 373.29271677 -1.07961819 373.29271677 1.32421875 372.453125 C2.20722656 371.97359375 3.09023438 371.4940625 4 371 C4.55896973 370.70673828 5.11793945 370.41347656 5.69384766 370.11132812 C7.75056743 369.0199423 9.78191711 367.8892672 11.8125 366.75 C12.59238281 366.31453857 13.37226562 365.87907715 14.17578125 365.43041992 C22.73353842 360.62754585 31.19617718 355.66206012 39.6640625 350.703125 C46.05282035 346.96365385 52.46119232 343.25880504 58.875 339.5625 C59.95313965 338.94101074 61.0312793 338.31952148 62.14208984 337.67919922 C66.52463201 335.1535448 70.90783923 332.62904571 75.29101562 330.10449219 C87.85455857 322.86720467 100.40597161 315.61067887 112.921875 308.29125977 C118.29417285 305.152224 123.67562775 302.03003693 129.0703125 298.9296875 C129.66092468 298.59003967 130.25153687 298.25039185 130.86004639 297.90045166 C133.72156866 296.25514271 136.58434585 294.61213111 139.44921875 292.97265625 C140.47917969 292.38097656 141.50914062 291.78929687 142.5703125 291.1796875 C143.92793701 290.40214111 143.92793701 290.40214111 145.31298828 289.60888672 C146.64305908 288.81248779 146.64305908 288.81248779 148 288 C149.02873387 287.45421925 150.05746775 286.90843849 151.11737537 286.34611893 C154.28559868 284.25253794 154.28559868 284.25253794 154.77460003 280.76588058 C154.78595391 279.47469944 154.7973078 278.1835183 154.80900574 276.85321045 C154.82330464 276.13264851 154.83760355 275.41208657 154.85233575 274.66968942 C154.89267302 272.25416893 154.89008674 269.84063258 154.88745117 267.42480469 C154.90704117 265.69334597 154.92907931 263.96191347 154.9533844 262.23051453 C155.01070373 257.52571353 155.02884215 252.82154401 155.03647399 248.11642742 C155.04295934 245.176143 155.05773709 242.2360208 155.07546425 239.295784 C155.13698262 229.03547311 155.16635106 218.7756268 155.16674805 208.51513672 C155.16798035 198.95530474 155.24003936 189.39777559 155.34512728 179.83857226 C155.43218223 171.62856899 155.46903063 163.41932157 155.46717244 155.20885968 C155.466946 150.30611846 155.48702403 145.40553149 155.55788231 140.50325775 C155.62288544 135.88911915 155.62526852 131.27907848 155.58016014 126.66474342 C155.57417103 124.97484275 155.59025619 123.28469263 155.63042068 121.59525871 C155.74513015 116.44284764 155.65340753 111.9149714 154 107 C150.06006425 103.16362786 146.03408998 101.23068381 141 99 C138.78372865 97.78686796 136.62271752 96.50090174 134.44921875 95.2109375 C132.19637346 93.93042328 129.94243321 92.65183389 127.6875 91.375 C125.21390363 89.9690968 122.74154681 88.56102435 120.26953125 87.15234375 C119.65392334 86.80166336 119.03831543 86.45098297 118.40405273 86.0896759 C112.53835699 82.74437809 106.70300524 79.34800562 100.875 75.9375 C92.63985285 71.11981237 84.39079712 66.32743084 76.125 61.5625 C74.50658203 60.62954102 74.50658203 60.62954102 72.85546875 59.67773438 C69.57057008 57.78470874 66.28534897 55.89224402 63 54 C48.14651596 45.4449221 33.30773069 36.86623186 18.5078125 28.21875 C17.61868164 27.70054687 16.72955078 27.18234375 15.81347656 26.6484375 C13.77411624 25.45356065 11.74030636 24.24919417 9.70996094 23.0390625 C8.6274707 22.39710938 7.54498047 21.75515625 6.4296875 21.09375 C5.43952637 20.50271484 4.44936523 19.91167969 3.42919922 19.30273438 C-0.6863339 17.09565048 -2.18893334 18.54678265 -6.0390625 20.7890625 Z " fill="#8C55A2" transform="translate(600,292)"/>
<path d="M0 0 C4.83915573 0.68987964 9.54468406 1.98792183 14 4 C13.39456125 8.94441643 12.39004992 13.13482528 11 18 C20.9 18 30.8 18 41 18 C41 17.01 41 16.02 41 15 C46.28 15 51.56 15 57 15 C57 10.71 57 6.42 57 2 C61.46205113 -0.23102556 68.21907124 0.95653701 73 1 C73 5.62 73 10.24 73 15 C74.28777344 14.98839844 75.57554687 14.97679687 76.90234375 14.96484375 C78.58072772 14.9554673 80.25911326 14.94636695 81.9375 14.9375 C83.21270508 14.92493164 83.21270508 14.92493164 84.51367188 14.91210938 C85.32255859 14.90888672 86.13144531 14.90566406 86.96484375 14.90234375 C87.7137085 14.89710693 88.46257324 14.89187012 89.23413086 14.88647461 C91 15 91 15 92 16 C92.07319621 18.69654854 92.09242537 21.36691458 92.0625 24.0625 C92.05798828 24.82111328 92.05347656 25.57972656 92.04882812 26.36132812 C92.0370068 28.24091871 92.01907078 30.12046899 92 32 C95.3 32 98.6 32 102 32 C102 36.29 102 40.58 102 45 C98.7 45 95.4 45 92 45 C92 50.61 92 56.22 92 62 C85.73 62 79.46 62 73 62 C73 63.32 73 64.64 73 66 C79.6 66 86.2 66 93 66 C93 70.29 93 74.58 93 79 C86.4 79 79.8 79 73 79 C73 80.65 73 82.3 73 84 C81.91 84 90.82 84 100 84 C100 88.29 100 92.58 100 97 C91.42 97 82.84 97 74 97 C74 101.29 74 105.58 74 110 C84.23 110.33 94.46 110.66 105 111 C105.33 111.66 105.66 112.32 106 113 C105.0390625 115.2421875 105.0390625 115.2421875 103.625 117.875 C102.00168588 120.91304598 100.6775 123.61250002 100 127 C59.96077212 127.66608697 59.96077212 127.66608697 45 123 C44.10925781 122.72285156 43.21851563 122.44570313 42.30078125 122.16015625 C35.79953963 119.84041766 30.47644837 116.14811834 25 112 C24.73960937 112.57621094 24.47921875 113.15242187 24.2109375 113.74609375 C22.91280192 116.16230095 21.4380757 118.00794479 19.625 120.0625 C19.03976562 120.73410156 18.45453125 121.40570312 17.8515625 122.09765625 C16.0239296 123.97541411 14.13635135 125.48949607 12 127 C9.03 125.68 6.06 124.36 3 123 C3 125.64 3 128.28 3 131 C-1.18462795 133.09231398 -6.32144372 132 -11 132 C-11.33 110.22 -11.66 88.44 -12 66 C-14.31 68.64 -16.62 71.28 -19 74 C-22.42009706 72.85996765 -23.28869442 71.77829802 -25.5625 69.0625 C-27.33130568 66.96656037 -29.05994888 64.94005112 -31 63 C-30.67 62.34 -30.34 61.68 -30 61 C-29.34 61 -28.68 61 -28 61 C-27.75507813 60.44054687 -27.51015625 59.88109375 -27.2578125 59.3046875 C-25.76420905 56.56796067 -23.92477833 54.4747459 -21.875 52.125 C-9.78604385 37.37763776 -4.82620851 21.46970023 -1.44287109 2.92480469 C-1 1 -1 1 0 0 Z " fill="#8D56A3" transform="translate(489,761)"/>
<path d="M0 0 C3.32615855 1.10871952 3.69480329 1.60266162 5.55859375 4.38671875 C6.26145508 5.4240918 6.26145508 5.4240918 6.97851562 6.48242188 C7.45998047 7.21009766 7.94144531 7.93777344 8.4375 8.6875 C8.91509766 9.39583984 9.39269531 10.10417969 9.88476562 10.83398438 C10.35462891 11.53201172 10.82449219 12.23003906 11.30859375 12.94921875 C11.77144775 13.63459717 12.23430176 14.31997559 12.71118164 15.02612305 C13.86150983 16.78789675 14.91836974 18.60989118 15.9609375 20.4375 C17.81416322 23.2127492 17.81416322 23.2127492 20.91796875 24.11328125 C24.74901736 24.34671432 27.35756346 24.2838096 31 23 C35.22495304 18.91626696 37.55157374 13.24999092 40 8 C40.85234147 6.3532207 41.70599127 4.70711572 42.5625 3.0625 C43.036875 2.051875 43.51125 1.04125 44 0 C49.51683341 1.55602994 54.05964123 4.15555101 59 7 C56.36 12.28 53.72 17.56 51 23 C62.88 23 74.76 23 87 23 C87 27.62 87 32.24 87 37 C66.705 36.505 66.705 36.505 46 36 C46 37.65 46 39.3 46 41 C54.58 41 63.16 41 72 41 C72 47.27 72 53.54 72 60 C75.15755208 59.73958333 78.31510417 59.47916667 81.47265625 59.21875 C84.97579838 59.00150088 88.49012792 59 92 59 C92 63.62 92 68.24 92 73 C85.4 72.67 78.8 72.34 72 72 C72 78.27 72 84.54 72 91 C63.585 91.495 63.585 91.495 55 92 C55.969375 93.175625 56.93875 94.35125 57.9375 95.5625 C58.75541016 96.55443359 58.75541016 96.55443359 59.58984375 97.56640625 C66.19707933 104.23789372 73.72450909 108.74239393 82.0625 112.9375 C83.02349609 113.43056641 83.98449219 113.92363281 84.97460938 114.43164062 C87.31226387 115.62954318 89.65389287 116.81876346 92 118 C89.42878211 120.57553201 86.85281675 123.14383818 84.25 125.6875 C81.98059858 127.78613313 81.98059858 127.78613313 81 130 C75.89293242 128.5431001 71.7677302 126.30242295 67.3125 123.5 C66.61568115 123.06365234 65.9188623 122.62730469 65.20092773 122.17773438 C50.29596648 112.59193295 50.29596648 112.59193295 47 106 C46.67 114.91 46.34 123.82 46 133 C40.72 133 35.44 133 30 133 C29.97529531 127.50073576 29.95713777 122.00150378 29.94506836 116.50219727 C29.94003721 114.63109779 29.93321165 112.76000225 29.92456055 110.88891602 C29.91244171 108.20067372 29.90675953 105.51248336 29.90234375 102.82421875 C29.89718246 101.98662521 29.89202118 101.14903168 29.88670349 100.28605652 C29.88637936 96.93624258 29.93315485 94.20053544 31 91 C27.04 91 23.08 91 19 91 C19.24447876 92.22323975 19.24447876 92.22323975 19.49389648 93.47119141 C20.07003805 97.48834059 20.12526605 101.41417626 20.09765625 105.4609375 C20.0962413 106.25150543 20.09482635 107.04207336 20.09336853 107.8565979 C20.08780504 110.36277166 20.07525944 112.86885358 20.0625 115.375 C20.05748028 117.08202995 20.0529182 118.78906132 20.04882812 120.49609375 C20.03870171 124.6641257 20.01911945 128.83196096 20 133 C14.72 133 9.44 133 4 133 C3.67 123.76 3.34 114.52 3 105 C2.01 105.99 1.02 106.98 0 108 C-0.66 108 -1.32 108 -2 108 C-2 108.66 -2 109.32 -2 110 C-4.00515884 111.72784964 -6.01863197 113.34075947 -8.125 114.9375 C-9.40529981 115.92141727 -10.68523686 116.90580673 -11.96484375 117.890625 C-12.6285498 118.39916016 -13.29225586 118.90769531 -13.97607422 119.43164062 C-15.98465487 120.98810892 -17.9661009 122.57345336 -19.94140625 124.171875 C-20.56966309 124.67726807 -21.19791992 125.18266113 -21.84521484 125.70336914 C-23.05664659 126.67928931 -24.26413944 127.66012286 -25.46728516 128.64624023 C-29.6636272 132 -29.6636272 132 -33 132 C-34.5 130.5390625 -34.5 130.5390625 -36 128.625 C-37.96614442 126.13659847 -39.29359306 124.8042713 -42 123 C-40.71421109 119.14263327 -39.10966784 118.40144205 -35.8125 116.0625 C-25.88300188 108.85509313 -16.47597195 100.87958966 -8 92 C-13.28 91.67 -18.56 91.34 -24 91 C-23.67 86.71 -23.34 82.42 -23 78 C-14.09 78 -5.18 78 4 78 C4 76.02 4 74.04 4 72 C2.73293213 72.03552979 1.46586426 72.07105957 0.16040039 72.10766602 C-4.52273796 72.23764449 -9.20603215 72.36094137 -13.8894043 72.48217773 C-15.91972695 72.53568003 -17.95000214 72.59101547 -19.98022461 72.64819336 C-22.89166014 72.7298755 -25.80320053 72.80505001 -28.71484375 72.87890625 C-29.6283812 72.90594131 -30.54191864 72.93297638 -31.48313904 72.96083069 C-33.65484502 73.01273771 -35.82770633 73.01189236 -38 73 C-38.33 72.67 -38.66 72.34 -39 72 C-39 67.71 -39 63.42 -39 59 C-24.81 59.33 -10.62 59.66 4 60 C4 57.69 4 55.38 4 53 C3.43603516 53.03029297 2.87207031 53.06058594 2.29101562 53.09179688 C-0.30587881 53.23004269 -2.9029328 53.36504005 -5.5 53.5 C-6.386875 53.54769531 -7.27375 53.59539063 -8.1875 53.64453125 C-13.46712713 53.91627676 -18.71344674 54.04940704 -24 54 C-23.67 49.38 -23.34 44.76 -23 40 C-9.635 40.495 -9.635 40.495 4 41 C4 39.35 4 37.7 4 36 C2.28115601 36.05329468 2.28115601 36.05329468 0.52758789 36.10766602 C-3.70827075 36.23765837 -7.94430211 36.36095036 -12.18041992 36.48217773 C-14.0167375 36.53567534 -15.85300247 36.59101046 -17.68920898 36.64819336 C-20.32263847 36.72988864 -22.95618405 36.80505738 -25.58984375 36.87890625 C-26.41588608 36.90594131 -27.24192841 36.93297638 -28.09300232 36.96083069 C-30.0613581 37.01283011 -32.03099331 37.01187837 -34 37 C-34.33 36.67 -34.66 36.34 -35 36 C-35 31.71 -35 27.42 -35 23 C-24.44 23 -13.88 23 -3 23 C-4.56998315 19.86003369 -6.17021411 17.13968349 -8.125 14.25 C-8.66382813 13.45078125 -9.20265625 12.6515625 -9.7578125 11.828125 C-10.16773438 11.22484375 -10.57765625 10.6215625 -11 10 C-7.5103248 6.40768729 -4.03355127 2.98132051 0 0 Z " fill="#8C55A2" transform="translate(644,758)"/>
<path d="M0 0 C0.02578125 0.74765625 0.0515625 1.4953125 0.078125 2.265625 C0.13484375 3.25046875 0.1915625 4.2353125 0.25 5.25 C0.29640625 6.22453125 0.3428125 7.1990625 0.390625 8.203125 C1.15637186 11.71770674 2.313673 12.64291564 5 15 C8.59267451 17.29661542 12.3293396 19.31226646 16.08056641 21.33813477 C17.87209083 22.31092034 19.64855611 23.30802573 21.42578125 24.30664062 C22.56144531 24.92345703 23.69710937 25.54027344 24.8671875 26.17578125 C25.89956543 26.74208252 26.93194336 27.30838379 27.99560547 27.8918457 C31.61846376 29.22811694 33.31398455 29.07800533 37 28 C40.21315156 26.55664778 40.21315156 26.55664778 43.45703125 24.69140625 C44.0454631 24.36462387 44.63389496 24.03784149 45.24015808 23.70115662 C46.47360839 23.0136125 47.70465036 22.32173151 48.93334961 21.62573242 C50.81869154 20.5589968 52.71223491 19.50811011 54.60742188 18.45898438 C60.67859541 15.62726355 60.67859541 15.62726355 65 11 C65.2275015 9.12943209 65.40962811 7.25314042 65.5625 5.375 C65.68818359 3.87066406 65.68818359 3.87066406 65.81640625 2.3359375 C65.87699219 1.56507813 65.93757812 0.79421875 66 0 C69.57968223 1.36190564 72.90576142 2.94904378 76.265625 4.78515625 C77.72355469 5.58083008 77.72355469 5.58083008 79.2109375 6.39257812 C80.21382812 6.94365234 81.21671875 7.49472656 82.25 8.0625 C83.26835938 8.61744141 84.28671875 9.17238281 85.3359375 9.74414062 C92.86510493 13.86510493 92.86510493 13.86510493 94 15 C94.08726223 16.78071246 94.10699041 18.5648314 94.09765625 20.34765625 C94.09282227 21.96704102 94.09282227 21.96704102 94.08789062 23.61914062 C94.07532227 25.32360352 94.07532227 25.32360352 94.0625 27.0625 C94.05798828 28.20267578 94.05347656 29.34285156 94.04882812 30.51757812 C94.03699747 33.34510351 94.0205141 36.1725264 94 39 C89.25 37.1484375 89.25 37.1484375 87 35.8125 C84.25401987 34.69694557 82.856322 35.22919023 80 36 C77.93388702 36.96634923 75.9004403 38.00403412 73.89453125 39.08984375 C72.17266602 40.01893555 72.17266602 40.01893555 70.41601562 40.96679688 C69.82473877 41.290271 69.23346191 41.61374512 68.62426758 41.94702148 C66.81158166 42.93800205 64.9932623 43.91795897 63.17382812 44.89648438 C57.20864226 47.92285392 57.20864226 47.92285392 52 52 C51.3139802 56.9987616 51.1593081 61.99670977 51.02514648 67.03735352 C50.96710348 68.70960648 50.8786095 70.38110202 50.75854492 72.05004883 C50.11893605 80.18234028 50.11893605 80.18234028 52 88 C56.03637396 92.43870467 61.53543181 94.77543092 67 97 C61.98806419 101.21327371 56.54250013 104.1495804 50.7890625 107.22827148 C49.00044631 108.18726071 47.21887929 109.15850683 45.4375 110.13085938 C44.303125 110.74123047 43.16875 111.35160156 42 111.98046875 C40.96875 112.53629639 39.9375 113.09212402 38.875 113.66479492 C36.09853425 114.95423881 34.05119345 115.81241666 31 116 C28.46386719 114.99951172 28.46386719 114.99951172 25.796875 113.4296875 C24.81589844 112.8625 23.83492187 112.2953125 22.82421875 111.7109375 C21.80972656 111.10507812 20.79523437 110.49921875 19.75 109.875 C17.74488671 108.70556619 15.73967962 107.5362932 13.734375 106.3671875 C12.77208984 105.79967773 11.80980469 105.23216797 10.81835938 104.64746094 C6.9149439 102.3657347 2.96535883 100.17186163 -1 98 C0.83729273 95.79564988 2.17475019 94.92849374 4.87402344 93.82397461 C8.5963298 92.26028011 11.11133576 90.84342907 14 88 C16.14102164 82.2072448 15.4479573 75.62831007 15.25 69.5625 C15.23801438 67.86005578 15.2314501 66.15756425 15.23046875 64.45507812 C15.21631767 60.30021154 15.12825856 56.15284693 15 52 C14.38068604 51.66266846 13.76137207 51.32533691 13.12329102 50.9777832 C10.26948503 49.42307205 7.41599093 47.86778931 4.5625 46.3125 C3.58861328 45.78205078 2.61472656 45.25160156 1.61132812 44.70507812 C0.1659668 43.91713867 0.1659668 43.91713867 -1.30859375 43.11328125 C-2.26749512 42.59459473 -3.22639648 42.0759082 -4.21435547 41.54150391 C-6.01350313 40.54590195 -7.79570677 39.51874414 -9.55517578 38.45458984 C-10.72089111 37.7558374 -10.72089111 37.7558374 -11.91015625 37.04296875 C-12.58312744 36.62426514 -13.25609863 36.20556152 -13.94946289 35.77416992 C-16.66755448 34.74796818 -18.25006158 35.17315383 -21 36 C-22.68029994 36.97691857 -24.34928604 37.97388051 -26 39 C-26.66 39 -27.32 39 -28 39 C-28.29160411 35.12660021 -28.46832697 31.2560148 -28.625 27.375 C-28.70878906 26.28058594 -28.79257812 25.18617188 -28.87890625 24.05859375 C-28.97831518 20.77809916 -28.91685385 18.1558539 -28 15 C-25.06154246 12.10738763 -21.74093969 10.65012043 -18 9 C-16.52085628 8.16662186 -15.05116641 7.31612974 -13.59375 6.4453125 C-12.2299794 5.67044284 -10.86540802 4.89698069 -9.5 4.125 C-8.79875 3.7228125 -8.0975 3.320625 -7.375 2.90625 C-2.23469388 0 -2.23469388 0 0 0 Z " fill="#AEA1EA" transform="translate(567,446)"/>
<path d="M0 0 C0.33 0 0.66 0 1 0 C1 2.31 1 4.62 1 7 C4.96 7 8.92 7 13 7 C8.76954796 18.37418241 4.42114172 29.69861998 0 41 C1.05960937 40.98839844 2.11921875 40.97679687 3.2109375 40.96484375 C4.59895658 40.95546524 5.98697755 40.94636511 7.375 40.9375 C8.07367188 40.92912109 8.77234375 40.92074219 9.4921875 40.91210938 C14.7734375 40.88671875 14.7734375 40.88671875 17 42 C17.18451025 52.55808656 17.18451025 52.55808656 16 57 C12.39947206 53.39947206 12.13260092 47.83929486 11 43 C4.565 43.495 4.565 43.495 -2 44 C-1.31734988 54.23975181 1.47843084 63.41801602 7.2421875 71.96484375 C8 74 8 74 7.41015625 76.421875 C5.76555772 79.42862023 3.85795395 81.76827764 1.5625 84.3125 C0.38880859 85.63701172 0.38880859 85.63701172 -0.80859375 86.98828125 C-3 89 -3 89 -6 89 C-6.14007777 79.75846739 -6.24615965 70.51730969 -6.31087303 61.27494049 C-6.34195937 56.98157294 -6.38400567 52.68894064 -6.45263672 48.39599609 C-6.51865433 44.23969993 -6.5538758 40.08410308 -6.56926346 35.92732239 C-6.58020442 34.35509758 -6.60156158 32.78290359 -6.63438034 31.21098328 C-6.86658217 19.60959388 -4.74554538 10.5925891 0 0 Z " fill="#ADA0E9" transform="translate(497,785)"/>
<path d="M0 0 C0.99 0.33 1.98 0.66 3 1 C3 8.26 3 15.52 3 23 C-0.28647835 24.86392828 -3.57853541 26.71638989 -6.875 28.5625 C-7.81214844 29.09552734 -8.74929688 29.62855469 -9.71484375 30.17773438 C-10.61074219 30.67724609 -11.50664063 31.17675781 -12.4296875 31.69140625 C-13.25710449 32.15748291 -14.08452148 32.62355957 -14.93701172 33.10375977 C-15.95819092 33.54739868 -15.95819092 33.54739868 -17 34 C-17.66 33.67 -18.32 33.34 -19 33 C-19 25.74 -19 18.48 -19 11 C-12.3125 7.1875 -12.3125 7.1875 -10.2355957 6.00463867 C-9.67960693 5.6872876 -9.12361816 5.36993652 -8.55078125 5.04296875 C-7.94443848 4.69927246 -7.3380957 4.35557617 -6.71337891 4.00146484 C-5.18838772 3.11011206 -3.70560689 2.14741667 -2.23046875 1.17578125 C-1.49441406 0.78777344 -0.75835938 0.39976562 0 0 Z " fill="#AEA1EA" transform="translate(572,507)"/>
<path d="M0 0 C0 7.59 0 15.18 0 23 C-6.6875 26.8125 -6.6875 26.8125 -8.7644043 27.99536133 C-9.32039307 28.3127124 -9.87638184 28.63006348 -10.44921875 28.95703125 C-11.05427246 29.3020166 -11.65932617 29.64700195 -12.28271484 30.00244141 C-13.8163119 30.89329691 -15.32606811 31.82490581 -16.83203125 32.76171875 C-19 34 -19 34 -21 34 C-21.23292281 30.27189132 -21.37459124 26.54565008 -21.5 22.8125 C-21.56703125 21.75740234 -21.6340625 20.70230469 -21.703125 19.61523438 C-21.89613504 11.96721157 -21.89613504 11.96721157 -19.39013672 9.26245117 C-17.31336383 7.95453347 -15.25657784 6.95969106 -13 6 C-11.97132813 5.40574219 -10.94265625 4.81148438 -9.8828125 4.19921875 C-8.97273437 3.70035156 -8.06265625 3.20148438 -7.125 2.6875 C-6.19945312 2.17574219 -5.27390625 1.66398437 -4.3203125 1.13671875 C-2 0 -2 0 0 0 Z " fill="#AEA1EA" transform="translate(675,507)"/>
<path d="M0 0 C6.75 2.25 6.75 2.25 10.0859375 4.1640625 C10.72063965 4.5245166 11.3553418 4.8849707 12.00927734 5.25634766 C13.18031006 5.93383057 13.18031006 5.93383057 14.375 6.625 C18.149375 8.790625 18.149375 8.790625 22 11 C22 18.59 22 26.18 22 34 C15.25 31.75 15.25 31.75 11.9140625 29.8359375 C10.96200928 29.29525635 10.96200928 29.29525635 9.99072266 28.74365234 C9.21003418 28.29199707 8.4293457 27.8403418 7.625 27.375 C5.10875 25.93125 2.5925 24.4875 0 23 C0 15.41 0 7.82 0 0 Z " fill="#AEA1EA" transform="translate(625,507)"/>
<path d="M0 0 C3.00221851 1.16641557 5.8935545 2.39256812 8.734375 3.91015625 C9.39050781 4.26013672 10.04664063 4.61011719 10.72265625 4.97070312 C11.39167969 5.33099609 12.06070313 5.69128906 12.75 6.0625 C13.43449219 6.42666016 14.11898437 6.79082031 14.82421875 7.16601562 C19.86732076 9.86732076 19.86732076 9.86732076 21 11 C21.08713831 12.70772358 21.10700007 14.41898649 21.09765625 16.12890625 C21.09443359 17.16337891 21.09121094 18.19785156 21.08789062 19.26367188 C21.07951172 20.35228516 21.07113281 21.44089844 21.0625 22.5625 C21.05798828 23.65498047 21.05347656 24.74746094 21.04882812 25.87304688 C21.03699826 28.58208495 21.02051543 31.29101599 21 34 C18.99171445 33.35872502 16.99389657 32.68470498 15 32 C14.37254883 31.78939941 13.74509766 31.57879883 13.09863281 31.36181641 C8.10162178 29.53851556 3.15121777 27.44548791 0 23 C-1.90639275 15.54588188 -0.91361613 7.55537115 0 0 Z " fill="#AEA1EA" transform="translate(525,507)"/>
<path d="M0 0 C1.62986845 20.70685175 1.62986845 20.70685175 -1.91015625 25.6875 C-4.56924308 27.19993269 -7.07799261 28.10840274 -10 29 C-11.68643537 29.92310146 -13.35498175 30.87996457 -15 31.875 C-18.74213836 34 -18.74213836 34 -21 34 C-21 26.41 -21 18.82 -21 11 C-18.81375 9.741875 -16.6275 8.48375 -14.375 7.1875 C-13.36058838 6.60198364 -13.36058838 6.60198364 -12.32568359 6.00463867 C-1.85300838 0 -1.85300838 0 0 0 Z " fill="#AEA1EA" transform="translate(625,431)"/>
<path d="M0 0 C3.13236146 1.20347373 6.07245926 2.50465161 8.98828125 4.1640625 C9.62548096 4.5245166 10.26268066 4.8849707 10.91918945 5.25634766 C11.70898193 5.70800293 12.49877441 6.1596582 13.3125 6.625 C15.849375 8.06875 18.38625 9.5125 21 11 C21 18.59 21 26.18 21 34 C14.24672749 31.74890916 14.24672749 31.74890916 11.38671875 30.08984375 C10.77892578 29.73986328 10.17113281 29.38988281 9.54492188 29.02929688 C8.93197266 28.66900391 8.31902344 28.30871094 7.6875 27.9375 C7.05521484 27.57333984 6.42292969 27.20917969 5.77148438 26.83398438 C1.16003667 24.16003667 1.16003667 24.16003667 0 23 C-0.08713831 21.29227642 -0.10700007 19.58101351 -0.09765625 17.87109375 C-0.09443359 16.83662109 -0.09121094 15.80214844 -0.08789062 14.73632812 C-0.07951172 13.64771484 -0.07113281 12.55910156 -0.0625 11.4375 C-0.05798828 10.34501953 -0.05347656 9.25253906 -0.04882812 8.12695312 C-0.03699826 5.41791505 -0.02051543 2.70898401 0 0 Z " fill="#AEA1EA" transform="translate(575,431)"/>
<path d="M0 0 C2.98319788 1.86157077 5.73095318 3.91555392 8.52172852 6.05859375 C10.4985982 7.10357521 12.49200837 8.12038474 14.52172852 9.05859375 C11.17088707 12.8357509 7.47588408 15.02286736 3.08422852 17.37109375 C2.42874023 17.74298828 1.77325195 18.11488281 1.09790039 18.49804688 C-1.6112722 19.95725017 -3.82400133 21.0565134 -6.93530273 21.06640625 C-10.72098705 19.56608896 -14.20142578 17.64776138 -17.72827148 15.62109375 C-18.46045898 15.21310547 -19.19264648 14.80511719 -19.94702148 14.38476562 C-25.34794868 11.31923935 -25.34794868 11.31923935 -26.47827148 9.05859375 C-8.11960215 -4.00144665 -8.11960215 -4.00144665 0 0 Z " fill="#AEA1EA" transform="translate(656.478271484375,489.94140625)"/>
<path d="M0 0 C0.7331543 0.4137085 1.46630859 0.82741699 2.22167969 1.25366211 C3.02089844 1.70161133 3.82011719 2.14956055 4.64355469 2.61108398 C5.46855469 3.0796582 6.29355469 3.54823242 7.14355469 4.03100586 C7.98402344 4.50344727 8.82449219 4.97588867 9.69042969 5.46264648 C11.76054345 6.62708547 13.82810482 7.79582036 15.89355469 8.96850586 C12.26268003 11.75751059 8.52079004 14.01254936 4.51855469 16.21850586 C3.87144531 16.59491211 3.22433594 16.97131836 2.55761719 17.35913086 C-0.48840998 19.02953285 -2.5115858 19.96452953 -6.02832031 19.98803711 C-10.28212722 18.57909853 -14.0684233 16.57143245 -17.98144531 14.40600586 C-18.76519531 13.98125977 -19.54894531 13.55651367 -20.35644531 13.11889648 C-22.27744918 12.07640048 -24.19377021 11.02618141 -26.10644531 9.96850586 C-22.80577975 6.40970557 -18.91326203 4.47786505 -14.66894531 2.21850586 C-13.52329102 1.58235352 -13.52329102 1.58235352 -12.35449219 0.93334961 C-11.61392578 0.53760742 -10.87335937 0.14186523 -10.11035156 -0.26586914 C-9.43818604 -0.6290625 -8.76602051 -0.99225586 -8.07348633 -1.36645508 C-4.89080119 -2.4424926 -2.92373215 -1.43170704 0 0 Z " fill="#AEA1EA" transform="translate(605.1064453125,415.031494140625)"/>
<path d="M0 0 C3.07116235 1.60547109 5.61415407 3.40686555 8.31640625 5.5703125 C10.04904819 6.55968336 11.79796206 7.52145758 13.56640625 8.4453125 C14.81792625 9.15095675 16.06857464 9.85816618 17.31640625 10.5703125 C13.96556481 14.34746965 10.27056182 16.53458611 5.87890625 18.8828125 C5.22341797 19.25470703 4.56792969 19.62660156 3.89257812 20.00976562 C1.18340553 21.46896892 -1.0293236 22.56823215 -4.140625 22.578125 C-7.92630932 21.07780771 -11.40674804 19.15948013 -14.93359375 17.1328125 C-15.66578125 16.72482422 -16.39796875 16.31683594 -17.15234375 15.89648438 C-22.55327095 12.8309581 -22.55327095 12.8309581 -23.68359375 10.5703125 C-6.76705374 -0.78937 -6.76705374 -0.78937 0 0 Z " fill="#AEA1EA" transform="translate(552.68359375,488.4296875)"/>
<path d="M0 0 C0.33 1.32 0.66 2.64 1 4 C8.92 4 16.84 4 25 4 C24.67 5.32 24.34 6.64 24 8 C18.72 8 13.44 8 8 8 C8 12.29 8 16.58 8 21 C13.61 21 19.22 21 25 21 C24.67 22.32 24.34 23.64 24 25 C21.35409986 25.02684679 18.70846904 25.04676357 16.0625 25.0625 C15.30775391 25.07087891 14.55300781 25.07925781 13.77539062 25.08789062 C11.85005687 25.09652441 9.92464419 25.05224333 8 25 C6.26043342 23.26043342 6.62809614 20.8063378 6.4375 18.4375 C6.35371094 17.42558594 6.26992188 16.41367187 6.18359375 15.37109375 C6.12300781 14.58863281 6.06242188 13.80617188 6 13 C2.7 12.67 -0.6 12.34 -4 12 C-3.33501617 7.61110675 -1.81242323 4.0188515 0 0 Z " fill="#ADA0E9" transform="translate(522,802)"/>
<path d="M0 0 C0.89203645 4.66502024 0.84457902 8.30789434 0 13 C-7.99099057 12.55605608 -15.29609167 9.93029593 -21.125 4.25 C-23 2 -23 2 -23 1 C-15.31395526 0.02840067 -7.74136601 -0.10920422 0 0 Z " fill="#AEA1EA" transform="translate(546,857)"/>
<path d="M0 0 C6.27 0 12.54 0 19 0 C19 1.65 19 3.3 19 5 C12.73 5 6.46 5 0 5 C0 3.35 0 1.7 0 0 Z " fill="#AEA1EA" transform="translate(528,840)"/>
<path d="M0 0 C0.33 0 0.66 0 1 0 C1 1.65 1 3.3 1 5 C6.61 5 12.22 5 18 5 C17.67 6.32 17.34 7.64 17 9 C10.4 9 3.8 9 -3 9 C-2.01 6.03 -1.02 3.06 0 0 Z " fill="#AEA1EA" transform="translate(529,784)"/>
<path d="M0 0 C3.3 0 6.6 0 10 0 C11 4 11 4 10 7 C6.7 7 3.4 7 0 7 C-1 3 -1 3 0 0 Z " fill="#AEA1EA" transform="translate(664,811)"/>
<path d="M0 0 C3.63 0 7.26 0 11 0 C11 2.31 11 4.62 11 7 C7.37 7 3.74 7 0 7 C0 4.69 0 2.38 0 0 Z " fill="#AEA1EA" transform="translate(690,811)"/>
<path d="M0 0 C3.96 0 7.92 0 12 0 C12 1.98 12 3.96 12 6 C8.37 6 4.74 6 1 6 C0 2 0 2 0 0 Z " fill="#AEA1EA" transform="translate(663,830)"/>
<path d="M0 0 C3.63 0 7.26 0 11 0 C11 1.98 11 3.96 11 6 C7.37 6 3.74 6 0 6 C0 4.02 0 2.04 0 0 Z " fill="#AEA1EA" transform="translate(690,830)"/>
<path d="M0 0 C3.96 0 7.92 0 12 0 C11.67 1.65 11.34 3.3 11 5 C7.37 5 3.74 5 0 5 C0 3.35 0 1.7 0 0 Z " fill="#AEA1EA" transform="translate(663,794)"/>
</svg>
