<?xml version="1.0" encoding="UTF-8"?>
<svg version="1.1" xmlns="http://www.w3.org/2000/svg" width="460" height="160" viewBox="0 0 350 88">
<path d="M0 0 C0.99 0.66 1.98 1.32 3 2 C3 2.66 3 3.32 3 4 C3.60328125 4.08636719 4.2065625 4.17273438 4.828125 4.26171875 C11.4373928 5.42367067 11.4373928 5.42367067 14.5625 8.625 C15.036875 9.40875 15.51125 10.1925 16 11 C16.50273438 10.83757813 17.00546875 10.67515625 17.5234375 10.5078125 C20.88988183 9.81753212 24.2051051 9.85534543 27.625 9.875 C28.305625 9.87113281 28.98625 9.86726562 29.6875 9.86328125 C34.74655878 9.87327939 34.74655878 9.87327939 37 11 C37.13277344 10.28972656 37.26554687 9.57945313 37.40234375 8.84765625 C37.57894531 7.92855469 37.75554687 7.00945313 37.9375 6.0625 C38.11152344 5.14597656 38.28554687 4.22945313 38.46484375 3.28515625 C39 1 39 1 40 0 C41.43871508 -0.0966376 42.88216371 -0.12371819 44.32412052 -0.12304783 C45.26314498 -0.12503888 46.20216944 -0.12702993 47.16964918 -0.12908131 C48.73527756 -0.12471205 48.73527756 -0.12471205 50.33253479 -0.12025452 C51.4318648 -0.12110894 52.53119481 -0.12196337 53.66383785 -0.12284368 C57.37820297 -0.12450172 61.09252375 -0.11897184 64.80688477 -0.11352539 C67.45724592 -0.11324356 70.10760428 -0.11335705 72.75796509 -0.1139679 C78.47979257 -0.11449332 84.20160868 -0.11134459 89.9234333 -0.10573006 C98.19632314 -0.09761756 106.46920745 -0.09500009 114.74210083 -0.09374207 C128.16294989 -0.09155115 141.5837929 -0.08489 155.00463867 -0.07543945 C168.04500295 -0.06626635 181.08536557 -0.05918502 194.12573242 -0.05493164 C194.92897151 -0.05466892 195.7322106 -0.05440619 196.55979026 -0.05413551 C200.58923478 -0.05283051 204.61867932 -0.05156679 208.64812386 -0.05032361 C242.09875461 -0.03994977 275.54937409 -0.02151081 309 0 C309 29.04 309 58.08 309 88 C219.9 88 130.8 88 39 88 C36.75 81.25 36.75 81.25 37 77 C36.41734375 77.47050781 35.8346875 77.94101563 35.234375 78.42578125 C24.16689627 86.83080048 11.61679293 88.6130756 -2 87 C-15.82351096 84.37623848 -29.86035279 77.93791451 -39 67 C-40.494448 63.80497324 -40.42642455 62.65506758 -40 59 C-36.64885019 54.08498027 -31.47928134 51.92689855 -26 50 C-25.34 50 -24.68 50 -24 50 C-24.45375 48.9275 -24.9075 47.855 -25.375 46.75 C-25.75785156 45.84507813 -25.75785156 45.84507813 -26.1484375 44.921875 C-26.97255296 42.97249668 -26.97255296 42.97249668 -28.08203125 41.11328125 C-29.23689635 38.45463436 -29.3006983 36.32891562 -29.3125 33.4375 C-29.32925781 32.48746094 -29.34601562 31.53742187 -29.36328125 30.55859375 C-29 28 -29 28 -27.66796875 26.22265625 C-26 25 -26 25 -23 24 C-23.495 23.401875 -23.99 22.80375 -24.5 22.1875 C-26.66176218 17.59375536 -26.62123884 13.01025094 -26 8 C-23.12863377 5.12863377 -19.88990718 5.1691264 -16 5 C-13.5 5.4375 -13.5 5.4375 -12 6 C-11.731875 5.38125 -11.46375 4.7625 -11.1875 4.125 C-8.5166516 -0.65441292 -4.96609284 -0.35472092 0 0 Z " fill="#FDFDFD" transform="translate(41,0)"/>
<path d="M0 0 C3 1 3 1 4 3 C6.53811141 3.56402476 9.07637845 3.89378356 11.65234375 4.2421875 C14 5 14 5 15.31640625 6.8828125 C16 9 16 9 16 12 C17.32 12 18.64 12 20 12 C20 11.34 20 10.68 20 10 C20.94875 9.690625 21.8975 9.38125 22.875 9.0625 C25.86080408 8.12605258 25.86080408 8.12605258 28 7 C33.96615776 6.36814623 38.70163317 6.98720318 44 10 C46.1875 12.4375 46.1875 12.4375 48 15 C48.7425 15.721875 49.485 16.44375 50.25 17.1875 C52 19 52 19 52 21 C52.66 21 53.32 21 54 21 C55.35439668 23.70879335 55.06501451 26.00933268 55 29 C55.66 29.33 56.32 29.66 57 30 C56.34 30.66 55.68 31.32 55 32 C54.35482176 34.29188851 54.35482176 34.29188851 53.9375 36.875 C53.38222823 39.94964532 52.79430134 42.97743738 52 46 C51.34 46 50.68 46 50 46 C49.62875 47.3303125 49.62875 47.3303125 49.25 48.6875 C47.94802442 52.1377353 46.31966596 54.17290711 44 57 C43.53980469 58.17175781 43.53980469 58.17175781 43.0703125 59.3671875 C40.60981972 65.41964054 36.7650819 69.73365311 30.79296875 72.46875 C22.32643637 74.9510841 13.92033656 75.38532047 5.125 75.5 C4.07965088 75.51877197 3.03430176 75.53754395 1.95727539 75.55688477 C-6.24290261 75.48851196 -13.42981699 74.01482121 -19.8125 68.625 C-20.534375 67.75875 -21.25625 66.8925 -22 66 C-22.45246094 65.52433594 -22.90492187 65.04867187 -23.37109375 64.55859375 C-26.50241167 61.16115816 -27.67180876 58.59467741 -28 54 C-27.39414062 53.79246094 -26.78828125 53.58492187 -26.1640625 53.37109375 C-19.32220416 50.85539507 -13.79718788 47.39106145 -8 43 C-8.58007812 42.38125 -8.58007812 42.38125 -9.171875 41.75 C-13.46943594 36.98438786 -18 31.67775923 -18 25 C-13.71 25.33 -9.42 25.66 -5 26 C-5.33 23.03 -5.66 20.06 -6 17 C-4.659375 17.309375 -3.31875 17.61875 -1.9375 17.9375 C2.03186473 18.8230703 5.96709613 19.48516121 10 20 C9.505 19.2575 9.01 18.515 8.5 17.75 C7 15 7 15 7 11 C1.97830264 10.81477346 -2.55242275 10.7031356 -7.375 12.25 C-11 13 -11 13 -13.5 11.375 C-15 9 -15 9 -15 5 C-14.01 4.67 -13.02 4.34 -12 4 C-11.01 5.65 -10.02 7.3 -9 9 C-8.236875 8.835 -7.47375 8.67 -6.6875 8.5 C5.65333333 6.82666667 5.65333333 6.82666667 10 9 C9.505 8.01 9.505 8.01 9 7 C6.97456444 6.74280183 4.94649776 6.49157878 2.91015625 6.34375 C1 6 1 6 -1 4 C-0.625 1.875 -0.625 1.875 0 0 Z " fill="#1D1616" transform="translate(36,7)"/>
<path d="M0 0 C5.94 0 11.88 0 18 0 C18.99 6.27 19.98 12.54 21 19 C21.61660294 13.86991657 21.61660294 13.86991657 22.22631836 8.73901367 C22.60000803 5.69021083 23.02617181 2.92148456 24 0 C29.61 0 35.22 0 41 0 C41 16.83 41 33.66 41 51 C37.04 51 33.08 51 29 51 C28.505 41.1 28.505 41.1 28 31 C27.01 37.6 26.02 44.2 25 51 C22.36 51 19.72 51 17 51 C15.19857074 49.19857074 15.50732576 46.43804514 15.24609375 43.99609375 C15.1267749 42.90224365 15.00745605 41.80839355 14.88452148 40.68139648 C14.73700439 39.28091064 14.5894873 37.8804248 14.4375 36.4375 C13.963125 32.003125 13.48875 27.56875 13 23 C12.67 32.24 12.34 41.48 12 51 C8.04 51 4.08 51 0 51 C0 34.17 0 17.34 0 0 Z " fill="#070707" transform="translate(121,18)"/>
<path d="M0 0 C22 0 22 0 27 3 C29.96463213 8.2136634 30.47811654 12.16697819 30 18 C28.9818126 20.76365152 28.09482585 21.90517415 26 24 C26.639375 24.598125 27.27875 25.19625 27.9375 25.8125 C31.98892611 30.10946709 31.32420844 35.21200525 31.29296875 40.81640625 C30.89812533 45.10703813 29.92415608 46.90383474 27 50 C18.94463602 54.02768199 9.00617072 51 0 51 C0 34.17 0 17.34 0 0 Z " fill="#050505" transform="translate(196,18)"/>
<path d="M0 0 C8.79909866 -0.77944772 15.11537979 1.14713149 23 5 C23 6.98 23 8.96 23 11 C24.32 11 25.64 11 27 11 C27 10.34 27 9.68 27 9 C30.33235778 7.33382111 34.02724988 7.77329515 37.6875 7.75 C38.87375977 7.7190625 38.87375977 7.7190625 40.08398438 7.6875 C45.49574689 7.6517493 49.20875729 8.44222292 54 11 C56.25 13.375 56.25 13.375 58 16 C58.556875 16.825 59.11375 17.65 59.6875 18.5 C61.02111252 21.04021433 61.45711673 23.20802889 62 26 C62.66 26.33 63.32 26.66 64 27 C64.62427684 34.29710264 63.94455138 39.31917623 60.2890625 45.7109375 C58.33277803 49.18482446 57.10754564 52.57749928 56.125 56.4375 C53.31994498 65.32017423 46.4311111 71.97374939 38.37109375 76.46484375 C26.9783333 80.82044332 13.97200456 79.34852997 2 79 C2 78.67 2 78.34 2 78 C2.55236328 77.9906543 3.10472656 77.98130859 3.67382812 77.97167969 C23.50698862 78.20060096 23.50698862 78.20060096 41.43359375 71.16796875 C44.78518462 67.52372338 46.91151626 63.4753223 49 59 C49.680625 58.154375 50.36125 57.30875 51.0625 56.4375 C52.98864395 54.01428665 54.00215764 51.91037355 55 49 C55.66 49 56.32 49 57 49 C57.185625 47.205625 57.185625 47.205625 57.375 45.375 C57.82325054 41.72403187 58.70446837 38.45475101 60 35 C59.34 34.67 58.68 34.34 58 34 C58.99 33.01 58.99 33.01 60 32 C60.02375926 30.0068433 60.02375926 30.0068433 59.625 27.875 C59.315625 25.956875 59.315625 25.956875 59 24 C58.34 24 57.68 24 57 24 C56.773125 23.4225 56.54625 22.845 56.3125 22.25 C54.66800353 19.43086319 52.5644533 17.98745131 50 16 C49.01 14.515 49.01 14.515 48 13 C43.21720649 10.7835835 38.20126327 10.32631257 33 11 C32.01 11.66 31.02 12.32 30 13 C27.3125 13.125 27.3125 13.125 25 13 C25 13.66 25 14.32 25 15 C23.68 15 22.36 15 21 15 C20.34 13.02 19.68 11.04 19 9 C17.95199219 8.83564453 17.95199219 8.83564453 16.8828125 8.66796875 C15.97273438 8.50941406 15.06265625 8.35085938 14.125 8.1875 C12.76761719 7.96126953 12.76761719 7.96126953 11.3828125 7.73046875 C9 7 9 7 7 4 C6.34 4 5.68 4 5 4 C5.495 5.98 5.495 5.98 6 8 C8.64 8.33 11.28 8.66 14 9 C14.495 10.485 14.495 10.485 15 12 C14.13117187 11.98839844 13.26234375 11.97679687 12.3671875 11.96484375 C11.21476562 11.95582031 10.06234375 11.94679688 8.875 11.9375 C7.16957031 11.92009766 7.16957031 11.92009766 5.4296875 11.90234375 C2.1870844 11.994673 -0.81932612 12.38610094 -4 13 C-4.928125 11.7625 -4.928125 11.7625 -5.875 10.5 C-6.57625 9.675 -7.2775 8.85 -8 8 C-8.66 8 -9.32 8 -10 8 C-9.34 10.31 -8.68 12.62 -8 15 C-4.53058454 14.54177532 -1.32604951 14.10868317 2 13 C9.05061082 12.52530541 9.05061082 12.52530541 12 14 C12.81640625 15.77734375 12.81640625 15.77734375 13.5625 17.9375 C14.29822324 20.03793267 15.00401313 22.00802626 16 24 C9.90673051 23.44606641 4.76123315 22.07044316 -1 20 C-0.67 22.97 -0.34 25.94 0 29 C-4.29 28.67 -8.58 28.34 -13 28 C-10.3137866 34.87670631 -7.13397429 39.70739168 -2 45 C-6.98139335 50.64557913 -13.25184522 55.09527298 -20.625 56.875 C-21.800625 56.936875 -21.800625 56.936875 -23 57 C-20.1915878 63.89767894 -20.1915878 63.89767894 -16 70 C-19.15050106 70.53789042 -21.21724852 70.52024336 -23.921875 68.72265625 C-27.1288883 65.80056356 -29.38664378 63.20000352 -30.25 58.875 C-30 55 -30 55 -28.125 52.25 C-22.9804568 48.5459289 -17.34725264 45.81900034 -11 45 C-11.3609375 44.56171875 -11.721875 44.1234375 -12.09375 43.671875 C-16.55328357 37.57717913 -16.55316735 32.37556471 -16 25 C-13.59454362 23.79727181 -12.05003047 23.89928528 -9.375 23.9375 C-8.14910156 23.95103516 -8.14910156 23.95103516 -6.8984375 23.96484375 C-6.27195312 23.97644531 -5.64546875 23.98804687 -5 24 C-4.67 22.35 -4.34 20.7 -4 19 C-6.64 19 -9.28 19 -12 19 C-14.91686762 14.17683306 -14.13091413 9.49839366 -14 4 C-10.37 4 -6.74 4 -3 4 C-2.67 4.99 -2.34 5.98 -2 7 C-1.34 7 -0.68 7 0 7 C0 4.69 0 2.38 0 0 Z " fill="#ABAAAA" transform="translate(31,4)"/>
<path d="M0 0 C3.625 1.5625 3.625 1.5625 6 4 C7.75986477 8.93435225 8.23860967 13.24753506 8.1953125 18.46484375 C8.1924826 19.14301651 8.18965271 19.82118927 8.18673706 20.51991272 C8.17565416 22.65929766 8.1505736 24.7982443 8.125 26.9375 C8.11495476 28.39908244 8.10583163 29.86067153 8.09765625 31.32226562 C8.07575425 34.88164979 8.04130866 38.44078203 8 42 C4.04 42 0.08 42 -4 42 C-4.33 41.34 -4.66 40.68 -5 40 C-5.53625 40.495 -6.0725 40.99 -6.625 41.5 C-9.66554673 43.4203453 -11.45624771 43.36914086 -15 43 C-17.57127602 42.14290799 -18.64744572 41.56637782 -20.08203125 39.26171875 C-21.82317964 34.97182549 -21.63408103 30.53300483 -21 26 C-17.73565263 21.05082818 -12.47061184 18.92384974 -7 17 C-6.34 17 -5.68 17 -5 17 C-5 13.7 -5 10.4 -5 7 C-5.99 7.33 -6.98 7.66 -8 8 C-8.33 10.97 -8.66 13.94 -9 17 C-12.63 17 -16.26 17 -20 17 C-20.72072801 7.02992922 -20.72072801 7.02992922 -18.734375 4.19140625 C-12.81799718 -0.64796104 -7.38500416 -0.67486983 0 0 Z " fill="#050505" transform="translate(251,27)"/>
<path d="M0 0 C3.63 0 7.26 0 11 0 C11.50831867 2.83206118 12.00681505 5.66529734 12.5 8.5 C12.64308594 9.29148437 12.78617188 10.08296875 12.93359375 10.8984375 C13.81386457 16.0123918 14.1428131 20.81112402 14 26 C14.66 26 15.32 26 16 26 C15.98259766 24.31583984 15.98259766 24.31583984 15.96484375 22.59765625 C15.91048749 14.98693084 15.90182265 7.5499693 17 0 C20.63 0 24.26 0 28 0 C25.20740184 39.56180725 25.20740184 39.56180725 19.8828125 45.26953125 C16.252373 47.44877881 13.2832612 47.45380821 9.1875 47.25 C8.49462891 47.23195312 7.80175781 47.21390625 7.08789062 47.1953125 C5.39132336 47.14851064 3.69547524 47.07677624 2 47 C2 44.69 2 42.38 2 40 C4.475 39.505 4.475 39.505 7 39 C6.21158406 34.99935226 5.41867892 30.99960667 4.625 27 C4.40328125 25.87464844 4.1815625 24.74929687 3.953125 23.58984375 C3.00773706 18.83509854 2.06245498 14.09939963 0.84375 9.40625 C0.03044885 6.12292313 -0.16826967 3.36539332 0 0 Z " fill="#060606" transform="translate(165,28)"/>
<path d="M0 0 C2.4375 1.6875 2.4375 1.6875 4.4375 4.6875 C4.69510279 7.38202521 4.52650053 9.97298375 4.4375 12.6875 C0.8075 12.6875 -2.8225 12.6875 -6.5625 12.6875 C-6.5625 10.3775 -6.5625 8.0675 -6.5625 5.6875 C-7.5525 6.0175 -8.5425 6.3475 -9.5625 6.6875 C-10.23404684 8.97091743 -10.23404684 8.97091743 -9.5625 11.6875 C-7.09943601 13.66797893 -4.2976084 15.11302891 -1.5625 16.6875 C1.25900734 18.39095209 3.55317749 19.95237733 5.4375 22.6875 C6.45899342 27.7135437 6.16209912 32.07362014 4.0625 36.75 C0.95040073 40.4605799 -0.94301644 41.43983974 -5.7109375 41.890625 C-11.71976216 42.01712657 -15.82222686 41.15374582 -20.4375 37 C-22.13708046 33.50641795 -21.75544508 30.54640158 -21.5625 26.6875 C-17.9325 26.6875 -14.3025 26.6875 -10.5625 26.6875 C-10.2325 28.9975 -9.9025 31.3075 -9.5625 33.6875 C-8.5725 34.0175 -7.5825 34.3475 -6.5625 34.6875 C-6.5625 32.0475 -6.5625 29.4075 -6.5625 26.6875 C-7.29082031 26.41679688 -8.01914062 26.14609375 -8.76953125 25.8671875 C-11.48199961 24.72150156 -13.7906844 23.42420768 -16.25 21.8125 C-17.01699219 21.32007812 -17.78398437 20.82765625 -18.57421875 20.3203125 C-20.74416545 18.53831304 -21.60416697 17.30794187 -22.5625 14.6875 C-22.98411717 9.37512372 -23.09409711 5.94977237 -19.5625 1.6875 C-14.27730355 -3.10220929 -6.291176 -2.31780168 0 0 Z " fill="#050505" transform="translate(321.5625,28.3125)"/>
<path d="M0 0 C2 3 2 3 2 6 C3.32 6 4.64 6 6 6 C6 5.34 6 4.68 6 4 C6.94875 3.690625 7.8975 3.38125 8.875 3.0625 C11.86080408 2.12605258 11.86080408 2.12605258 14 1 C19.96615776 0.36814623 24.70163317 0.98720318 30 4 C32.1875 6.4375 32.1875 6.4375 34 9 C34.7425 9.721875 35.485 10.44375 36.25 11.1875 C38 13 38 13 38 15 C38.66 15 39.32 15 40 15 C41.35439668 17.70879335 41.06501451 20.00933268 41 23 C41.66 23.33 42.32 23.66 43 24 C42.34 24.66 41.68 25.32 41 26 C40.35482176 28.29188851 40.35482176 28.29188851 39.9375 30.875 C39.38222823 33.94964532 38.79430134 36.97743738 38 40 C37.34 40 36.68 40 36 40 C35.62875 41.3303125 35.62875 41.3303125 35.25 42.6875 C33.94802442 46.1377353 32.31966596 48.17290711 30 51 C29.53980469 52.17175781 29.53980469 52.17175781 29.0703125 53.3671875 C26.60981972 59.41964054 22.7650819 63.73365311 16.79296875 66.46875 C8.32643637 68.9510841 -0.07966344 69.38532047 -8.875 69.5 C-9.92034912 69.51877197 -10.96569824 69.53754395 -12.04272461 69.55688477 C-20.24290261 69.48851196 -27.42981699 68.01482121 -33.8125 62.625 C-34.8953125 61.325625 -34.8953125 61.325625 -36 60 C-36.71349609 59.23429687 -36.71349609 59.23429687 -37.44140625 58.453125 C-38.875 56.875 -38.875 56.875 -41 54 C-40.67 53.01 -40.34 52.02 -40 51 C-39.21689453 51.67095703 -39.21689453 51.67095703 -38.41796875 52.35546875 C-32.67878516 57.06943916 -26.91278897 60.30552605 -20 63 C-19.11957031 63.36480469 -18.23914063 63.72960937 -17.33203125 64.10546875 C-7.42567007 66.76497251 5.58780713 66.89256331 14.9375 62.4375 C17.64878359 60.81003265 17.64878359 60.81003265 20 59 C20.66773438 58.51660156 21.33546875 58.03320312 22.0234375 57.53515625 C29.11712344 51.44821613 35.14191567 39.33991794 36 30 C36.75420013 21.78384635 36.75420013 21.78384635 35 14 C33.35 14 31.7 14 30 14 C31.65 15.65 33.3 17.3 35 19 C33.68 19 32.36 19 31 19 C31 19.66 31 20.32 31 21 C31.66 21 32.32 21 33 21 C32.505 22.485 32.505 22.485 32 24 C30.35 23.67 28.7 23.34 27 23 C27 21.35 27 19.7 27 18 C27.99 17.67 28.98 17.34 30 17 C28.68 16.34 27.36 15.68 26 15 C26 14.67 26 14.34 26 14 C25.2479126 13.91959473 24.4958252 13.83918945 23.72094727 13.75634766 C20.3336781 13.38881021 16.94815561 13.00710329 13.5625 12.625 C12.37849609 12.49867187 11.19449219 12.37234375 9.97460938 12.2421875 C8.84990234 12.11328125 7.72519531 11.984375 6.56640625 11.8515625 C5.52427979 11.73635254 4.48215332 11.62114258 3.40844727 11.50244141 C2.61365967 11.33663574 1.81887207 11.17083008 1 11 C-0.20272819 8.59454362 -0.10071472 7.05003047 -0.0625 4.375 C-0.05347656 3.55773437 -0.04445312 2.74046875 -0.03515625 1.8984375 C-0.02355469 1.27195312 -0.01195312 0.64546875 0 0 Z " fill="#565454" transform="translate(50,13)"/>
<path d="M0 0 C4.29 0 8.58 0 13 0 C13 2.31 13 4.62 13 7 C13.99 7 14.98 7 16 7 C16 9.31 16 11.62 16 14 C15.01 14 14.02 14 13 14 C13 22.58 13 31.16 13 40 C14.32 40 15.64 40 17 40 C17 42.31 17 44.62 17 47 C15.10545628 47.10877763 13.20908246 47.18594173 11.3125 47.25 C10.25675781 47.29640625 9.20101563 47.3428125 8.11328125 47.390625 C4.16940928 46.89578535 2.76176035 45.83334444 0 43 C-0.56762695 39.88378906 -0.56762695 39.88378906 -0.48828125 36.265625 C-0.47216797 34.97011719 -0.45605469 33.67460938 -0.43945312 32.33984375 C-0.39767939 30.97654572 -0.3553547 29.61326448 -0.3125 28.25 C-0.2874091 26.87113376 -0.26459729 25.49222403 -0.24414062 24.11328125 C-0.18518617 20.74108644 -0.10293171 17.37109259 0 14 C-0.99 14 -1.98 14 -3 14 C-3 11.69 -3 9.38 -3 7 C-2.01 7 -1.02 7 0 7 C0 4.69 0 2.38 0 0 Z " fill="#070707" transform="translate(264,22)"/>
<path d="M0 0 C3 1 3 1 4 3 C7.29419525 3.91223868 10.63015202 4.40281175 14 5 C14.33 8.96 14.66 12.92 15 17 C16.505625 16.95875 18.01125 16.9175 19.5625 16.875 C26.81561021 16.85606238 33.84126423 17.91797786 41 19 C41 19.66 41 20.32 41 21 C42.32 21.66 43.64 22.32 45 23 C43.68 23.33 42.36 23.66 41 24 C41.495 26.475 41.495 26.475 42 29 C43.32 29 44.64 29 46 29 C46.33 28.34 46.66 27.68 47 27 C46.34 27 45.68 27 45 27 C45 26.34 45 25.68 45 25 C45.99 24.67 46.98 24.34 48 24 C47.01 23.360625 46.02 22.72125 45 22.0625 C44.01 21.381875 43.02 20.70125 42 20 C42 19.67 42 19.34 42 19 C45.375 18.8125 45.375 18.8125 49 19 C51.35119399 22.52679099 51.21443452 24.02879485 51.125 28.1875 C51.10695313 29.27417969 51.08890625 30.36085938 51.0703125 31.48046875 C51.04710938 32.31191406 51.02390625 33.14335938 51 34 C36.1217697 34.6797161 23.70485176 32.73764601 12.1875 22.5 C8.7365115 18.55601314 7 16.33202128 7 11 C1.97830264 10.81477346 -2.55242275 10.7031356 -7.375 12.25 C-11 13 -11 13 -13.5 11.375 C-15 9 -15 9 -15 5 C-14.01 4.67 -13.02 4.34 -12 4 C-11.01 5.65 -10.02 7.3 -9 9 C-8.236875 8.835 -7.47375 8.67 -6.6875 8.5 C5.65333333 6.82666667 5.65333333 6.82666667 10 9 C9.67 8.34 9.34 7.68 9 7 C6.97456444 6.74280183 4.94649776 6.49157878 2.91015625 6.34375 C1 6 1 6 -1 4 C-0.625 1.875 -0.625 1.875 0 0 Z " fill="#CF0505" transform="translate(36,7)"/>
<path d="M0 0 C4.29 0 8.58 0 13 0 C13 13.53 13 27.06 13 41 C8.71 41 4.42 41 0 41 C0 27.47 0 13.94 0 0 Z " fill="#000000" transform="translate(283,28)"/>
<path d="M0 0 C0.99 0.66 1.98 1.32 3 2 C3 2.66 3 3.32 3 4 C3.60328125 4.08636719 4.2065625 4.17273438 4.828125 4.26171875 C11.4373928 5.42367067 11.4373928 5.42367067 14.5625 8.625 C15.036875 9.40875 15.51125 10.1925 16 11 C16.50273438 10.83886719 17.00546875 10.67773438 17.5234375 10.51171875 C20.88816156 9.81648397 24.20501407 9.81577585 27.625 9.8125 C28.305625 9.80025391 28.98625 9.78800781 29.6875 9.77539062 C31.45990756 9.77013645 33.2317994 9.87784094 35 10 C35.99 10.99 35.99 10.99 37 12 C27.1 12.495 27.1 12.495 17 13 C17 13.66 17 14.32 17 15 C15.68 15 14.36 15 13 15 C13 13.02 13 11.04 13 9 C12.21753906 8.79503906 11.43507812 8.59007812 10.62890625 8.37890625 C9.61699219 8.10949219 8.60507812 7.84007812 7.5625 7.5625 C6.55316406 7.29566406 5.54382812 7.02882813 4.50390625 6.75390625 C2 6 2 6 1 5 C-0.84891946 4.76636119 -2.70488031 4.58696365 -4.5625 4.4375 C-5.57441406 4.35371094 -6.58632813 4.26992187 -7.62890625 4.18359375 C-8.80259766 4.09271484 -8.80259766 4.09271484 -10 4 C-10 6.31 -10 8.62 -10 11 C-10.66 11 -11.32 11 -12 11 C-12.33 10.34 -12.66 9.68 -13 9 C-15.58605332 8.5316735 -15.58605332 8.5316735 -18.5625 8.375 C-19.57441406 8.30023438 -20.58632813 8.22546875 -21.62890625 8.1484375 C-22.80259766 8.07496094 -22.80259766 8.07496094 -24 8 C-23.85816304 9.75032844 -23.71136571 11.50025534 -23.5625 13.25 C-23.48128906 14.22453125 -23.40007813 15.1990625 -23.31640625 16.203125 C-23.04925416 18.56461753 -22.64628032 20.71901065 -22 23 C-19.36 23 -16.72 23 -14 23 C-14.33 24.65 -14.66 26.3 -15 28 C-18.63 28.33 -22.26 28.66 -26 29 C-25.65499129 39.95716391 -25.65499129 39.95716391 -20 49 C-21.98 49.495 -21.98 49.495 -24 50 C-25.07421875 47.4609375 -25.07421875 47.4609375 -26.1484375 44.921875 C-26.97255296 42.97249668 -26.97255296 42.97249668 -28.08203125 41.11328125 C-29.23689635 38.45463436 -29.3006983 36.32891562 -29.3125 33.4375 C-29.32925781 32.48746094 -29.34601562 31.53742187 -29.36328125 30.55859375 C-29 28 -29 28 -27.66796875 26.22265625 C-26 25 -26 25 -23 24 C-23.495 23.401875 -23.99 22.80375 -24.5 22.1875 C-26.66176218 17.59375536 -26.62123884 13.01025094 -26 8 C-23.12863377 5.12863377 -19.88990718 5.1691264 -16 5 C-13.5 5.4375 -13.5 5.4375 -12 6 C-11.731875 5.38125 -11.46375 4.7625 -11.1875 4.125 C-8.5166516 -0.65441292 -4.96609284 -0.35472092 0 0 Z " fill="#E8E8E8" transform="translate(41,0)"/>
<path d="M0 0 C1.18625977 -0.0309375 1.18625977 -0.0309375 2.39648438 -0.0625 C7.80824689 -0.0982507 11.52125729 0.69222292 16.3125 3.25 C18.5625 5.625 18.5625 5.625 20.3125 8.25 C20.869375 9.075 21.42625 9.9 22 10.75 C23.33361252 13.29021433 23.76961673 15.45802889 24.3125 18.25 C24.9725 18.58 25.6325 18.91 26.3125 19.25 C26.93677684 26.54710264 26.25705138 31.56917623 22.6015625 37.9609375 C20.64527803 41.43482446 19.42004564 44.82749928 18.4375 48.6875 C15.63244498 57.57017423 8.7436111 64.22374939 0.68359375 68.71484375 C-10.7091667 73.07044332 -23.71549544 71.59852997 -35.6875 71.25 C-35.6875 70.92 -35.6875 70.59 -35.6875 70.25 C-35.13513672 70.2406543 -34.58277344 70.23130859 -34.01367188 70.22167969 C-14.18051138 70.45060096 -14.18051138 70.45060096 3.74609375 63.41796875 C7.09768462 59.77372338 9.22401626 55.7253223 11.3125 51.25 C11.993125 50.404375 12.67375 49.55875 13.375 48.6875 C15.30114395 46.26428665 16.31465764 44.16037355 17.3125 41.25 C17.9725 41.25 18.6325 41.25 19.3125 41.25 C19.498125 39.455625 19.498125 39.455625 19.6875 37.625 C20.13575054 33.97403187 21.01696837 30.70475101 22.3125 27.25 C21.6525 26.92 20.9925 26.59 20.3125 26.25 C20.9725 25.59 21.6325 24.93 22.3125 24.25 C21.30790046 16.06618914 18.87308834 9.25671904 12.5 3.875 C6.50271708 0.71922449 -2.70945668 1.40885571 -9.14453125 2.76953125 C-9.65371094 2.92808594 -10.16289063 3.08664063 -10.6875 3.25 C-10.6875 2.59 -10.6875 1.93 -10.6875 1.25 C-7.35514222 -0.41617889 -3.66025012 0.02329515 0 0 Z " fill="#CECECE" transform="translate(68.6875,11.75)"/>
<path d="M0 0 C4.10337513 2.41778795 7.06975578 5.08512561 9.7890625 9.05078125 C8.1390625 9.38078125 6.4890625 9.71078125 4.7890625 10.05078125 C6.4390625 11.70078125 8.0890625 13.35078125 9.7890625 15.05078125 C8.4690625 15.05078125 7.1490625 15.05078125 5.7890625 15.05078125 C5.7890625 15.71078125 5.7890625 16.37078125 5.7890625 17.05078125 C6.4490625 17.05078125 7.1090625 17.05078125 7.7890625 17.05078125 C7.4590625 18.04078125 7.1290625 19.03078125 6.7890625 20.05078125 C5.1390625 19.72078125 3.4890625 19.39078125 1.7890625 19.05078125 C1.7890625 17.40078125 1.7890625 15.75078125 1.7890625 14.05078125 C2.7790625 13.72078125 3.7690625 13.39078125 4.7890625 13.05078125 C3.4690625 12.39078125 2.1490625 11.73078125 0.7890625 11.05078125 C0.7890625 10.72078125 0.7890625 10.39078125 0.7890625 10.05078125 C-11.0909375 8.56578125 -11.0909375 8.56578125 -23.2109375 7.05078125 C-16.74117152 0.58101527 -9.1102449 -3.91128889 0 0 Z " fill="#403232" transform="translate(75.2109375,16.94921875)"/>
<path d="M0 0 C0.42667969 0.36351563 0.85335938 0.72703125 1.29296875 1.1015625 C7.31215823 5.94173549 13.88092596 9.06757744 21 12 C21.89847656 12.3815625 22.79695313 12.763125 23.72265625 13.15625 C28.43279533 14.36887222 32.96934521 14.28908397 37.8125 14.25 C39.23272461 14.26160156 39.23272461 14.26160156 40.68164062 14.2734375 C46.71949618 14.25681574 52.17377724 13.55983314 58 12 C59.33303543 11.66547729 60.66628378 11.33179803 62 11 C61.67 11.99 61.34 12.98 61 14 C51.84572638 17.9326549 41.95423954 18.41052424 32.125 18.5 C31.08021484 18.51828857 30.03542969 18.53657715 28.95898438 18.55541992 C20.75855466 18.49098797 13.56992872 17.01460648 7.1875 11.625 C6.465625 10.75875 5.74375 9.8925 5 9 C4.5359375 8.48953125 4.071875 7.9790625 3.59375 7.453125 C0 3.42013889 0 3.42013889 0 0 Z " fill="#919191" transform="translate(9,64)"/>
<path d="M0 0 C0 4.04825339 -1.5341076 5.36529157 -4.16796875 8.2890625 C-12.53478087 16.10284439 -24.64692625 16.67994883 -35.51171875 16.37890625 C-46.57743798 15.7105071 -57.91626716 11.2325008 -67 5 C-67.33 4.34 -67.66 3.68 -68 3 C-63.46719483 3.70651429 -60.42755894 5.36001433 -56.57421875 7.74609375 C-44.22371489 13.76204479 -25.32408567 12.97920498 -12.3125 9.4375 C-7.04916632 7.45120105 -3.42200841 4.42994543 0 0 Z " fill="#F6F6F6" transform="translate(79,71)"/>
<path d="M0 0 C0.66 0 1.32 0 2 0 C2.20496094 0.55429687 2.40992188 1.10859375 2.62109375 1.6796875 C2.89050781 2.40414063 3.15992188 3.12859375 3.4375 3.875 C3.70433594 4.59429688 3.97117188 5.31359375 4.24609375 6.0546875 C4.97916854 8.03648845 4.97916854 8.03648845 6 10 C-0.09326949 9.44606641 -5.23876685 8.07044316 -11 6 C-10.67 8.97 -10.34 11.94 -10 15 C-14.29 14.67 -18.58 14.34 -23 14 C-20.3137866 20.87670631 -17.13397429 25.70739168 -12 31 C-16.91704809 36.57265451 -23.58404216 41.56133843 -31 43 C-30.3125 41.0625 -30.3125 41.0625 -29 39 C-26.375 38.25 -26.375 38.25 -24 38 C-24 37.34 -24 36.68 -24 36 C-21.69 35.01 -19.38 34.02 -17 33 C-17.11341534 30.59122743 -17.11341534 30.59122743 -18 28 C-19.63631892 26.95107762 -21.30485863 25.95093297 -23 25 C-25.55970147 21.5870647 -25.23437702 18.14066062 -25 14 C-23.26043342 12.26043342 -20.8063378 12.62809614 -18.4375 12.4375 C-17.42558594 12.35371094 -16.41367187 12.26992188 -15.37109375 12.18359375 C-14.58863281 12.12300781 -13.80617188 12.06242187 -13 12 C-12.67 9.69 -12.34 7.38 -12 5 C-8.04 5 -4.08 5 0 5 C0 3.35 0 1.7 0 0 Z " fill="#635F5F" transform="translate(41,18)"/>
<path d="M0 0 C0.33 0 0.66 0 1 0 C1.59579058 5.38418149 1.78087752 9.6740766 -1.5 14.1875 C-2.62813985 15.49265476 -3.79692532 16.76357783 -5 18 C-5.61488281 18.64195313 -6.22976562 19.28390625 -6.86328125 19.9453125 C-10.86176184 23.77552036 -14.48010823 25.9388229 -19.82421875 27.39453125 C-22.0545333 27.95436004 -22.0545333 27.95436004 -24.25 29.02563477 C-27.39922621 30.14145169 -29.84060117 30.22817142 -33.17578125 30.1953125 C-34.33271484 30.18886719 -35.48964844 30.18242188 -36.68164062 30.17578125 C-38.47891602 30.15064453 -38.47891602 30.15064453 -40.3125 30.125 C-41.53001953 30.11597656 -42.74753906 30.10695313 -44.00195312 30.09765625 C-47.00150274 30.07413037 -50.00065044 30.04125653 -53 30 C-53 29.67 -53 29.34 -53 29 C-52.44763672 28.9906543 -51.89527344 28.98130859 -51.32617188 28.97167969 C-31.49301138 29.20060096 -31.49301138 29.20060096 -13.56640625 22.16796875 C-10.21481538 18.52372338 -8.08848374 14.4753223 -6 10 C-5.319375 9.154375 -4.63875 8.30875 -3.9375 7.4375 C-2.01135605 5.01428665 -0.99784236 2.91037355 0 0 Z " fill="#B2B2B2" transform="translate(86,53)"/>
<path d="M0 0 C2 3 2 3 2 6 C3.32 6 4.64 6 6 6 C6 5.34 6 4.68 6 4 C6.94875 3.690625 7.8975 3.38125 8.875 3.0625 C11.86080408 2.12605258 11.86080408 2.12605258 14 1 C19.96615776 0.36814623 24.70163317 0.98720318 30 4 C32.1875 6.4375 32.1875 6.4375 34 9 C34.7425 9.721875 35.485 10.44375 36.25 11.1875 C38 13 38 13 38 15 C38.66 15 39.32 15 40 15 C41.35439668 17.70879335 41.06501451 20.00933268 41 23 C39.68 22.67 38.36 22.34 37 22 C36.79375 20.824375 36.5875 19.64875 36.375 18.4375 C34.84104377 12.34488513 31.27867396 8.56975317 26.1875 5.0625 C19.12307366 2.70769122 13.55955887 3.66468787 6.953125 6.91015625 C4.81014995 8.10593633 2.8539986 9.38782731 1 11 C-0.20272819 8.59454362 -0.10071472 7.05003047 -0.0625 4.375 C-0.05347656 3.55773437 -0.04445312 2.74046875 -0.03515625 1.8984375 C-0.02355469 1.27195312 -0.01195312 0.64546875 0 0 Z " fill="#676666" transform="translate(50,13)"/>
<path d="M0 0 C0.99 0.66 1.98 1.32 3 2 C2.6875 4.375 2.6875 4.375 2 7 C-1 9 -1 9 -5 9 C-5 9.66 -5 10.32 -5 11 C-6.4540625 11.680625 -6.4540625 11.680625 -7.9375 12.375 C-11.07079582 13.65786221 -11.07079582 13.65786221 -12 16 C-12.66 16 -13.32 16 -14 16 C-11.1915878 22.89767894 -11.1915878 22.89767894 -7 29 C-10.35289282 28.71260919 -12.03956604 27.97186415 -14.8125 26 C-17.41813734 22.4265545 -17.69636655 20.40631783 -17.40234375 16.08203125 C-17 14 -17 14 -15.625 11.625 C-12.36198959 9.60504118 -9.13831903 8.66999121 -5.4375 7.7109375 C-3.10736355 7.03131437 -1.12909244 6.1532584 1 5 C0.67 3.35 0.34 1.7 0 0 Z " fill="#B1B1B1" transform="translate(22,45)"/>
<path d="M0 0 C0.42667969 0.36351563 0.85335938 0.72703125 1.29296875 1.1015625 C11.27655899 9.12960413 23.10379664 14.10549342 35.875 14.625 C36.65875 14.66367188 37.4425 14.70234375 38.25 14.7421875 C40.16631367 14.83566622 42.08312319 14.91888495 44 15 C44 15.33 44 15.66 44 16 C40.50007197 16.05869332 37.0002728 16.09382709 33.5 16.125 C32.02660156 16.15013672 32.02660156 16.15013672 30.5234375 16.17578125 C21.07613054 16.2387633 11.36531821 15.00001995 4.1640625 8.2890625 C0 3.65580986 0 3.65580986 0 0 Z " fill="#6C6C6C" transform="translate(9,64)"/>
<path d="M0 0 C0.33 0.66 0.66 1.32 1 2 C3.64 2 6.28 2 9 2 C8.67 3.65 8.34 5.3 8 7 C4.37 7.33 0.74 7.66 -3 8 C-2.65499129 18.95716391 -2.65499129 18.95716391 3 28 C1.68 28.33 0.36 28.66 -1 29 C-1.71614583 27.30729167 -2.43229167 25.61458333 -3.1484375 23.921875 C-3.97255296 21.97249668 -3.97255296 21.97249668 -5.08203125 20.11328125 C-6.23689635 17.45463436 -6.3006983 15.32891562 -6.3125 12.4375 C-6.32925781 11.48746094 -6.34601562 10.53742187 -6.36328125 9.55859375 C-6 7 -6 7 -4.66796875 5.22265625 C-3 4 -3 4 0 3 C0 2.01 0 1.02 0 0 Z " fill="#C6C6C6" transform="translate(18,21)"/>
<path d="M0 0 C3.63 0 7.26 0 11 0 C11 0.33 11 0.66 11 1 C8.36 1.66 5.72 2.32 3 3 C3.52268466 5.76276177 4.10869587 8.3260876 5 11 C2.69 11.33 0.38 11.66 -2 12 C-2.66 10.35 -3.32 8.7 -4 7 C-6.64 7 -9.28 7 -12 7 C-12.33 9.64 -12.66 12.28 -13 15 C-13.33 15 -13.66 15 -14 15 C-14 11.37 -14 7.74 -14 4 C-10.37 4 -6.74 4 -3 4 C-2.67 4.99 -2.34 5.98 -2 7 C-1.34 7 -0.68 7 0 7 C0 4.69 0 2.38 0 0 Z " fill="#C3C2C2" transform="translate(31,4)"/>
<path d="M0 0 C4.29 0 8.58 0 13 0 C13 2.31 13 4.62 13 7 C8.71 7 4.42 7 0 7 C0 4.69 0 2.38 0 0 Z " fill="#000000" transform="translate(283,18)"/>
<path d="M0 0 C1.91015625 0.23046875 1.91015625 0.23046875 3.91015625 2.23046875 C4.53515625 4.85546875 4.53515625 4.85546875 4.91015625 7.23046875 C2.03925038 6.83448173 1.12100498 6.49808445 -0.71484375 4.16796875 C-1.16859375 3.52859375 -1.62234375 2.88921875 -2.08984375 2.23046875 C-2.74984375 2.23046875 -3.40984375 2.23046875 -4.08984375 2.23046875 C-3.42984375 4.54046875 -2.76984375 6.85046875 -2.08984375 9.23046875 C-0.43984375 9.23046875 1.21015625 9.23046875 2.91015625 9.23046875 C2.58015625 10.22046875 2.25015625 11.21046875 1.91015625 12.23046875 C-4.83984375 12.35546875 -4.83984375 12.35546875 -7.08984375 11.23046875 C-7.11672526 9.58472309 -7.13618498 7.93885462 -7.15234375 6.29296875 C-7.16394531 5.37644531 -7.17554687 4.45992187 -7.1875 3.515625 C-6.98929478 -1.12237713 -3.96757672 0.07920752 0 0 Z " fill="#9F9C9C" transform="translate(25.08984375,9.76953125)"/>
<path d="M0 0 C4.53280517 0.70651429 7.57244106 2.36001433 11.42578125 4.74609375 C18.80521383 8.34062768 26.44488164 8.39375258 34.5 8.625 C35.60859375 8.66367188 36.7171875 8.70234375 37.859375 8.7421875 C40.57275797 8.83575243 43.28614661 8.92149483 46 9 C41.28467236 12.14355176 36.52915889 11.16983765 31 11 C29.89785156 11.01675781 28.79570313 11.03351563 27.66015625 11.05078125 C17.4203836 10.89829895 9.58413825 7.28005485 1 2 C0.67 1.34 0.34 0.68 0 0 Z " fill="#D5D5D5" transform="translate(11,74)"/>
<path d="M0 0 C-0.71027344 0.40992188 -1.42054687 0.81984375 -2.15234375 1.2421875 C-3.07144531 1.78101563 -3.99054687 2.31984375 -4.9375 2.875 C-5.85402344 3.40867187 -6.77054688 3.94234375 -7.71484375 4.4921875 C-10.10700296 5.79712563 -10.10700296 5.79712563 -11 8 C-11.53676049 11.83400347 -11.87196229 15.49693214 -9.8828125 18.92578125 C-8.38012716 20.7577247 -8.38012716 20.7577247 -6 23 C-9.87255015 21.42229438 -12.38393026 19.25241103 -15 16 C-16.01808361 13.25173058 -16.37896187 10.9132694 -16 8 C-13.2413059 3.95391532 -5.13748901 -2.56874451 0 0 Z " fill="#E0E0E0" transform="translate(17,51)"/>
<path d="M0 0 C5.65757259 1.97592834 9.35799889 5.60112817 12 11 C11.75 13.375 11.75 13.375 11 15 C10.773125 14.4225 10.54625 13.845 10.3125 13.25 C8.66800353 10.43086319 6.5644533 8.98745131 4 7 C3.34 6.01 2.68 5.02 2 4 C-2.78279351 1.7835835 -7.79873673 1.32631257 -13 2 C-13.99 2.66 -14.98 3.32 -16 4 C-18.1875 3.625 -18.1875 3.625 -20 3 C-13.9013877 -1.38447079 -7.15315684 -0.80491998 0 0 Z " fill="#999999" transform="translate(77,13)"/>
<path d="M0 0 C0.33 1.32 0.66 2.64 1 4 C-0.27875 4.12375 -1.5575 4.2475 -2.875 4.375 C-6.34790936 4.69042399 -6.34790936 4.69042399 -9 7 C-9.31195136 11.21134332 -9.43906694 14.46335294 -7 18 C-6.29875 18.680625 -5.5975 19.36125 -4.875 20.0625 C-3 22 -3 22 -3 25 C-6.0080208 28.0080208 -8.85463326 28.5289356 -13 29 C-10.63707344 26.47411298 -9.33537489 25.11179163 -6 24 C-6.3609375 23.56171875 -6.721875 23.1234375 -7.09375 22.671875 C-11.55328357 16.57717913 -11.55316735 11.37556471 -11 4 C-8.59454362 2.79727181 -7.05003047 2.89928528 -4.375 2.9375 C-3.14910156 2.95103516 -3.14910156 2.95103516 -1.8984375 2.96484375 C-0.95871094 2.98224609 -0.95871094 2.98224609 0 3 C0 2.01 0 1.02 0 0 Z " fill="#B3B3B3" transform="translate(26,25)"/>
<path d="M0 0 C3.26008643 3.16952847 6.22237877 6.39937989 9 10 C3.36986818 14.57644793 -2.42184562 17.95355965 -9 21 C-9 20.01 -9 19.02 -9 18 C-7.02 17.34 -5.04 16.68 -3 16 C-3 15.34 -3 14.68 -3 14 C-0.69 13.01 1.62 12.02 4 11 C3.72965366 8.56282742 3.72965366 8.56282742 3 6 C2.01 5.34 1.02 4.68 0 4 C0 2.68 0 1.36 0 0 Z " fill="#5C5C5C" transform="translate(20,40)"/>
<path d="M0 0 C2.97 0.495 2.97 0.495 6 1 C5.01 2.485 5.01 2.485 4 4 C3.36439611 6.36978147 3.36439611 6.36978147 2.9375 8.9375 C2.38037931 11.99015305 1.78714944 14.99768665 1 18 C0.34 18 -0.32 18 -1 18 C-1.33 18.66 -1.66 19.32 -2 20 C-2.26404456 13.13484138 -1.25841946 6.74153283 0 0 Z " fill="#717070" transform="translate(87,35)"/>
<path d="M0 0 C1.91789713 0.28346278 3.83429183 0.5771028 5.75 0.875 C7.35101563 1.11863281 7.35101563 1.11863281 8.984375 1.3671875 C11.67708871 1.93223882 13.63572439 2.63422914 16 4 C16 6.64 16 9.28 16 12 C16.99 12.33 17.98 12.66 19 13 C17.68 13 16.36 13 15 13 C14.34 11.02 13.68 9.04 13 7 C12.31292969 6.91363281 11.62585937 6.82726562 10.91796875 6.73828125 C10.01691406 6.59777344 9.11585937 6.45726562 8.1875 6.3125 C7.29417969 6.18488281 6.40085937 6.05726562 5.48046875 5.92578125 C2.21398546 4.70663709 1.49062226 3.0654325 0 0 Z " fill="#9C9696" transform="translate(37,6)"/>
<path d="M0 0 C5.28 0 10.56 0 16 0 C16 0.33 16 0.66 16 1 C14.35 1.33 12.7 1.66 11 2 C12.65 3.65 14.3 5.3 16 7 C14.68 7 13.36 7 12 7 C12 7.66 12 8.32 12 9 C12.66 9 13.32 9 14 9 C13.67 9.99 13.34 10.98 13 12 C11.35 11.67 9.7 11.34 8 11 C8 9.35 8 7.7 8 6 C8.99 5.67 9.98 5.34 11 5 C9.68 4.34 8.36 3.68 7 3 C7 2.67 7 2.34 7 2 C4.69 1.67 2.38 1.34 0 1 C0 0.67 0 0.34 0 0 Z " fill="#3E2323" transform="translate(69,25)"/>
<path d="M0 0 C0.33 0 0.66 0 1 0 C1.31245735 4.58270782 0.92744156 6.50958891 -2 10 C-2.226875 10.763125 -2.45375 11.52625 -2.6875 12.3125 C-4.7530215 16.54190116 -8.3821301 19.08046313 -12 22 C-12.66 21.67 -13.32 21.34 -14 21 C-13.05125 20.113125 -12.1025 19.22625 -11.125 18.3125 C-8.48164533 15.68149745 -7.26620581 13.52728762 -6 10 C-4.66666667 8.33333333 -3.33333333 6.66666667 -2 5 C-0.75983331 2.3205355 -0.75983331 2.3205355 0 0 Z " fill="#9A9A9A" transform="translate(86,53)"/>
<path d="M0 0 C1.32 0 2.64 0 4 0 C4 4.29 4 8.58 4 13 C2.68 13.33 1.36 13.66 0 14 C0 9.38 0 4.76 0 0 Z " fill="#EAEAEA" transform="translate(209,46)"/>
<path d="M0 0 C8.38011029 -0.15392039 16.64895793 0.31728707 25 1 C25 1.66 25 2.32 25 3 C22.33305052 3.05455124 19.66724502 3.09393392 17 3.125 C15.88431641 3.15013672 15.88431641 3.15013672 14.74609375 3.17578125 C9.49451557 3.22144715 5.0483054 2.45712451 0 1 C0 0.67 0 0.34 0 0 Z " fill="#FAFAFA" transform="translate(31,84)"/>
<path d="M0 0 C0.33 1.65 0.66 3.3 1 5 C-2.63 5 -6.26 5 -10 5 C-9.67 3.68 -9.34 2.36 -9 1 C-5.8035914 -0.06546953 -3.34252724 -0.07427838 0 0 Z " fill="#B7B7B7" transform="translate(39,17)"/>
<path d="M0 0 C0.33 0 0.66 0 1 0 C1.02578125 0.7734375 1.0515625 1.546875 1.078125 2.34375 C1.49587862 10.01522554 2.3335082 16.3335082 8 22 C6.68 22.33 5.36 22.66 4 23 C3.28385417 21.30729167 2.56770833 19.61458333 1.8515625 17.921875 C1.02913037 15.97207379 1.02913037 15.97207379 -0.08984375 14.12109375 C-1.25255575 11.41142588 -1.23064994 9.25061895 -1.1875 6.3125 C-1.18105469 5.33925781 -1.17460937 4.36601562 -1.16796875 3.36328125 C-1 1 -1 1 0 0 Z " fill="#E5E5E5" transform="translate(13,27)"/>
<path d="M0 0 C0.66 0.66 1.32 1.32 2 2 C3.34216256 1.70421536 4.67340007 1.35919566 6 1 C8.55501672 0.88083978 11.07069372 0.81494665 13.625 0.8125 C14.305625 0.80025391 14.98625 0.78800781 15.6875 0.77539062 C17.45990756 0.77013645 19.2317994 0.87784094 21 1 C21.66 1.66 22.32 2.32 23 3 C21.75863281 3.06058594 20.51726562 3.12117187 19.23828125 3.18359375 C17.59634423 3.26803623 15.95441768 3.35268236 14.3125 3.4375 C13.49587891 3.47681641 12.67925781 3.51613281 11.83789062 3.55664062 C7.80344189 3.76898003 3.94252691 4.04447922 0 5 C0 3.35 0 1.7 0 0 Z " fill="#ECECEC" transform="translate(55,9)"/>
<path d="M0 0 C0.99 0.66 1.98 1.32 3 2 C2.6875 4.375 2.6875 4.375 2 7 C-1 9 -1 9 -5 9 C-5 9.66 -5 10.32 -5 11 C-6.4540625 11.680625 -6.4540625 11.680625 -7.9375 12.375 C-11.07079582 13.65786221 -11.07079582 13.65786221 -12 16 C-12.66 16 -13.32 16 -14 16 C-12.9024777 13.00675737 -12.32317108 12.15389099 -9.375 10.75 C-8.59125 10.5025 -7.8075 10.255 -7 10 C-7 9.34 -7 8.68 -7 8 C-4.34771188 6.92474806 -1.71631546 5.90543849 1 5 C0.67 3.35 0.34 1.7 0 0 Z " fill="#898989" transform="translate(22,45)"/>
<path d="M0 0 C-0.25621819 7.68654573 -1.03686496 13.35216058 -5 20 C-6.63129887 15.93714243 -5.29968777 12.79897816 -4.0625 8.75 C-3.68222656 7.48671875 -3.30195312 6.2234375 -2.91015625 4.921875 C-2.60980469 3.95765625 -2.30945313 2.9934375 -2 2 C-2.66 1.67 -3.32 1.34 -4 1 C-2 0 -2 0 0 0 Z " fill="#BCBCBC" transform="translate(93,37)"/>
<path d="M0 0 C1.2065625 0.0309375 1.2065625 0.0309375 2.4375 0.0625 C2.7675 0.7225 3.0975 1.3825 3.4375 2.0625 C2.1175 2.0625 0.7975 2.0625 -0.5625 2.0625 C-0.2325 3.7125 0.0975 5.3625 0.4375 7.0625 C1.7575 7.0625 3.0775 7.0625 4.4375 7.0625 C4.7675 6.4025 5.0975 5.7425 5.4375 5.0625 C4.7775 5.0625 4.1175 5.0625 3.4375 5.0625 C3.4375 4.4025 3.4375 3.7425 3.4375 3.0625 C4.4275 3.0625 5.4175 3.0625 6.4375 3.0625 C6.480221 4.72861905 6.47813832 6.39632885 6.4375 8.0625 C5.4375 9.0625 5.4375 9.0625 2.5625 9.3125 C-0.5625 9.0625 -0.5625 9.0625 -2.4375 7.875 C-3.92616316 5.47659825 -3.85428308 3.83443929 -3.5625 1.0625 C-2.5625 0.0625 -2.5625 0.0625 0 0 Z " fill="#B7A3A3" transform="translate(77.5625,28.9375)"/>
<path d="M0 0 C1.32 0 2.64 0 4 0 C4 3.63 4 7.26 4 11 C2.68 11 1.36 11 0 11 C0 7.37 0 3.74 0 0 Z " fill="#E8E8E8" transform="translate(209,27)"/>
<path d="M0 0 C0.66 0 1.32 0 2 0 C2 3.96 2 7.92 2 12 C0.68 11.67 -0.64 11.34 -2 11 C-2.25 3.375 -2.25 3.375 0 0 Z " fill="#E2E2E2" transform="translate(244,51)"/>
<path d="M0 0 C0.99 0 1.98 0 3 0 C3 3.3 3 6.6 3 10 C2.01 10.33 1.02 10.66 0 11 C-1 10 -1 10 -1.1328125 7.96875 C-1.13023437 7.1540625 -1.12765625 6.339375 -1.125 5.5 C-1.12757813 4.6853125 -1.13015625 3.870625 -1.1328125 3.03125 C-1 1 -1 1 0 0 Z " fill="#E0E0E0" transform="translate(243,34)"/>
<path d="M0 0 C0 3.46992611 -0.92246351 4.97441197 -3.171875 7.56640625 C-6.82540804 10.43146314 -11.46213721 11.39810762 -16 12 C-18.33984375 11.56640625 -18.33984375 11.56640625 -20 11 C-19.14277344 10.79246094 -18.28554688 10.58492187 -17.40234375 10.37109375 C-9.83336163 8.33164986 -4.8451691 6.27229163 0 0 Z " fill="#D9D9D9" transform="translate(79,71)"/>
<path d="M0 0 C1.5 1.375 1.5 1.375 3 3 C3 3.66 3 4.32 3 5 C3.66 5 4.32 5 5 5 C6.35439668 7.70879335 6.06501451 10.00933268 6 13 C4.68 12.67 3.36 12.34 2 12 C0.86235649 7.73383684 0 4.43513689 0 0 Z " fill="#777272" transform="translate(85,23)"/>
<path d="M0 0 C0 3 0 3 -2.5 6 C-5.82478581 9.15933439 -9.45857247 11.18180759 -14 12 C-16.2421875 11.56640625 -16.2421875 11.56640625 -18 11 C-17.03578125 10.54109375 -16.0715625 10.0821875 -15.078125 9.609375 C-13.80187267 8.99001725 -12.52584263 8.37020128 -11.25 7.75 C-10.61578125 7.44964844 -9.9815625 7.14929688 -9.328125 6.83984375 C-5.58312578 5.00635455 -2.75196117 3.14112739 0 0 Z " fill="#6E6E6E" transform="translate(78,66)"/>
<path d="M0 0 C1.2989839 0.90626784 2.58893167 1.82549537 3.875 2.75 C4.59429688 3.26046875 5.31359375 3.7709375 6.0546875 4.296875 C8.08570565 6.07503547 8.97855012 7.52701607 10 10 C7.35337395 9.84876423 5.55721506 9.49998757 3.5546875 7.703125 C0 3.6 0 3.6 0 0 Z " fill="#7D7D7D" transform="translate(9,64)"/>
<path d="M0 0 C3.63 0 7.26 0 11 0 C11.33 1.32 11.66 2.64 12 4 C11.34 3.67 10.68 3.34 10 3 C8.62657169 2.9310528 7.24997898 2.91532292 5.875 2.9375 C4.59625 2.958125 3.3175 2.97875 2 3 C1.67 5.64 1.34 8.28 1 11 C0.67 11 0.34 11 0 11 C0 7.37 0 3.74 0 0 Z " fill="#BCBCBC" transform="translate(17,8)"/>
<path d="M0 0 C1.7015625 0.4640625 1.7015625 0.4640625 3.4375 0.9375 C10.82676614 2.61255872 18.4561027 2.67087474 26 3 C26 3.33 26 3.66 26 4 C18.74 4 11.48 4 4 4 C4 3.34 4 2.68 4 2 C2.68 1.34 1.36 0.68 0 0 Z " fill="#585858" transform="translate(27,76)"/>
<path d="M0 0 C2 3 2 3 2 6 C3.32 6 4.64 6 6 6 C6 5.34 6 4.68 6 4 C7.32 4.33 8.64 4.66 10 5 C5.545 7.97 5.545 7.97 1 11 C-0.20272819 8.59454362 -0.10071472 7.05003047 -0.0625 4.375 C-0.05347656 3.55773437 -0.04445312 2.74046875 -0.03515625 1.8984375 C-0.02355469 1.27195312 -0.01195312 0.64546875 0 0 Z " fill="#7A7878" transform="translate(50,13)"/>
<path d="M0 0 C0.99 0.33 1.98 0.66 3 1 C3.6875 3.0625 3.6875 3.0625 4 5 C6.64 5.33 9.28 5.66 12 6 C12.33 6.99 12.66 7.98 13 9 C11.39479996 8.93976735 9.79065673 8.85091401 8.1875 8.75 C6.84751953 8.68039062 6.84751953 8.68039062 5.48046875 8.609375 C3 8 3 8 1.17578125 6.203125 C0 4 0 4 0 0 Z " fill="#A48C8C" transform="translate(33,7)"/>
<path d="M0 0 C1.03930664 0.02030273 1.03930664 0.02030273 2.09960938 0.04101562 C3.79591265 0.07611155 5.49181136 0.12991057 7.1875 0.1875 C7.1875 1.1775 7.1875 2.1675 7.1875 3.1875 C6.62160156 3.02636719 6.05570313 2.86523438 5.47265625 2.69921875 C3.12557777 2.17363365 1.0273366 2.02032434 -1.375 2 C-2.13941406 1.98582031 -2.90382813 1.97164062 -3.69140625 1.95703125 C-6.11403503 2.0551625 -6.11403503 2.0551625 -8.8125 4.1875 C-11 3.8125 -11 3.8125 -12.8125 3.1875 C-8.59904502 0.07036146 -5.0714095 -0.18926791 0 0 Z " fill="#8E8E8E" transform="translate(69.8125,12.8125)"/>
<path d="M0 0 C1.32 0 2.64 0 4 0 C4 2.64 4 5.28 4 8 C2.68 7.67 1.36 7.34 0 7 C0 4.69 0 2.38 0 0 Z " fill="#EDEDED" transform="translate(311,55)"/>
<path d="M0 0 C1.67110042 2.96178773 2.32682752 5.37071192 2.625 8.75 C2.69976563 9.54921875 2.77453125 10.3484375 2.8515625 11.171875 C2.90054687 11.77515625 2.94953125 12.3784375 3 13 C-0.06734237 10.06602035 -0.97028556 8.84686156 -1.125 4.4375 C-1 1 -1 1 0 0 Z " fill="#858585" transform="translate(17,31)"/>
<path d="M0 0 C0.33 1.32 0.66 2.64 1 4 C-0.27875 4.12375 -1.5575 4.2475 -2.875 4.375 C-6.34790936 4.69042399 -6.34790936 4.69042399 -9 7 C-9.40047444 9.32275177 -9.7397104 11.65739357 -10 14 C-10.33 14 -10.66 14 -11 14 C-11 10.7 -11 7.4 -11 4 C-8.59454362 2.79727181 -7.05003047 2.89928528 -4.375 2.9375 C-3.14910156 2.95103516 -3.14910156 2.95103516 -1.8984375 2.96484375 C-0.95871094 2.98224609 -0.95871094 2.98224609 0 3 C0 2.01 0 1.02 0 0 Z " fill="#AAAAAA" transform="translate(26,25)"/>
<path d="M0 0 C0.33 0 0.66 0 1 0 C1.3125 2.6875 1.3125 2.6875 1 6 C-1.46143568 8.9271127 -3.82124178 10.88082786 -7 13 C-5.74915329 10.39406936 -4.37594686 7.8805129 -2.9375 5.375 C-1.92096756 3.60426608 -0.91310863 1.82621725 0 0 Z " fill="#8A8A8A" transform="translate(86,53)"/>
<path d="M0 0 C0.33 0 0.66 0 1 0 C1.33 2.97 1.66 5.94 2 9 C-2.29 8.67 -6.58 8.34 -11 8 C-11 7.67 -11 7.34 -11 7 C-7.7 6.67 -4.4 6.34 -1 6 C-0.67 4.02 -0.34 2.04 0 0 Z " fill="#5B5B5B" transform="translate(29,24)"/>
<path d="M0 0 C0.66 0 1.32 0 2 0 C2.042721 1.66611905 2.04063832 3.33382885 2 5 C1 6 1 6 -1.28515625 6.09765625 C-2.65994141 6.08025391 -2.65994141 6.08025391 -4.0625 6.0625 C-4.98160156 6.05347656 -5.90070312 6.04445313 -6.84765625 6.03515625 C-7.55792969 6.02355469 -8.26820312 6.01195312 -9 6 C-8.67 5.34 -8.34 4.68 -8 4 C-5.36 4 -2.72 4 0 4 C0 2.68 0 1.36 0 0 Z " fill="#888888" transform="translate(27,25)"/>
<path d="M0 0 C0 0.99 0 1.98 0 3 C-3.63 3 -7.26 3 -11 3 C-10 1 -10 1 -8.3125 0.375 C-5.51555886 -0.07855802 -2.82858003 -0.06428591 0 0 Z " fill="#EEEEEE" transform="translate(25,24)"/>
<path d="M0 0 C0.66 0 1.32 0 2 0 C2 2.31 2 4.62 2 7 C-4.93 6.505 -4.93 6.505 -12 6 C-12 5.67 -12 5.34 -12 5 C-8.04 5 -4.08 5 0 5 C0 3.35 0 1.7 0 0 Z " fill="#838181" transform="translate(41,18)"/>
<path d="M0 0 C-0.33 0.99 -0.66 1.98 -1 3 C-6.04473164 5.308606 -11.46271835 6.43715381 -17 6 C-17 5.67 -17 5.34 -17 5 C-16.08476563 4.72285156 -15.16953125 4.44570312 -14.2265625 4.16015625 C-13.03804687 3.79792969 -11.84953125 3.43570313 -10.625 3.0625 C-9.44164062 2.70285156 -8.25828125 2.34320313 -7.0390625 1.97265625 C-0.87550201 0 -0.87550201 0 0 0 Z " fill="#979797" transform="translate(71,75)"/>
<path d="M0 0 C2 2 2 2 3.4375 5.375 C4.73106478 8.37607028 5.92306037 10.52745282 8 13 C4.60931932 11.54685114 2.23959074 9.9594592 0 7 C-0.25 3.25 -0.25 3.25 0 0 Z " fill="#949494" transform="translate(7,61)"/>
<path d="M0 0 C0.68359375 1.734375 0.68359375 1.734375 1 4 C-0.21484375 6.140625 -0.21484375 6.140625 -1.9375 8.25 C-2.50339844 8.95640625 -3.06929688 9.6628125 -3.65234375 10.390625 C-4.31943359 11.18726562 -4.31943359 11.18726562 -5 12 C-5 8.83317502 -4.48781492 7.62418394 -3.0625 4.875 C-2.70285156 4.17117187 -2.34320313 3.46734375 -1.97265625 2.7421875 C-1 1 -1 1 0 0 Z " fill="#CECECE" transform="translate(86,59)"/>
<path d="M0 0 C0.99 0.33 1.98 0.66 3 1 C4.1875 3.5625 4.1875 3.5625 5 6 C3.35 5.67 1.7 5.34 0 5 C-0.5625 3.0625 -0.5625 3.0625 -1 1 C-0.67 0.67 -0.34 0.34 0 0 Z " fill="#CF0F0F" transform="translate(36,7)"/>
<path d="M0 0 C2.97 0.495 2.97 0.495 6 1 C4.6875 3.5 4.6875 3.5 3 6 C2.01 6 1.02 6 0 6 C0 4.02 0 2.04 0 0 Z " fill="#382A2A" transform="translate(87,35)"/>
<path d="M0 0 C1.2065625 0.0309375 1.2065625 0.0309375 2.4375 0.0625 C2.7675 0.7225 3.0975 1.3825 3.4375 2.0625 C2.81875 2.145 2.2 2.2275 1.5625 2.3125 C-0.74687567 2.87508459 -0.74687567 2.87508459 -1.8125 5.125 C-2.06 5.764375 -2.3075 6.40375 -2.5625 7.0625 C-3.5625 6.0625 -3.5625 6.0625 -3.6875 3.5625 C-3.51717518 0.15600356 -3.41884482 0.08338646 0 0 Z " fill="#E7DDDD" transform="translate(77.5625,28.9375)"/>
<path d="M0 0 C3 3.75 3 3.75 3 6 C3.66 6.33 4.32 6.66 5 7 C3.33388095 7.042721 1.66617115 7.04063832 0 7 C-1 6 -1 6 -1.125 3.5 C-1 1 -1 1 0 0 Z " fill="#8F8686" transform="translate(20,13)"/>
<path d="M0 0 C2.375 -0.125 2.375 -0.125 5 0 C7 2 7 2 7.125 5.125 C7.08375 6.07375 7.0425 7.0225 7 8 C7.99 8.33 8.98 8.66 10 9 C8.68 9 7.36 9 6 9 C6 7.02 6 5.04 6 3 C4.02 2.34 2.04 1.68 0 1 C0 0.67 0 0.34 0 0 Z " fill="#D5D5D5" transform="translate(48,6)"/>
<path d="M0 0 C-3.96 1.98 -3.96 1.98 -8 4 C-8 3.01 -8 2.02 -8 1 C-4.59449725 -1.06762667 -4.18836538 -1.04709135 0 0 Z " fill="#5C5C5C" transform="translate(19,57)"/>
<path d="M0 0 C6 6 6 6 6.0625 8.5625 C6.041875 9.366875 6.02125 10.17125 6 11 C5.62875 10.1028125 5.62875 10.1028125 5.25 9.1875 C4.1279694 6.86575942 4.1279694 6.86575942 1.875 5.5 C1.25625 5.005 0.6375 4.51 0 4 C0 2.68 0 1.36 0 0 Z " fill="#6F6F6F" transform="translate(20,40)"/>
<path d="M0 0 C2.64 1.98 5.28 3.96 8 6 C7.01 6.33 6.02 6.66 5 7 C2.3125 5.25 2.3125 5.25 0 3 C0 2.01 0 1.02 0 0 Z " fill="#616161" transform="translate(9,64)"/>
<path d="M0 0 C0 0.99 0 1.98 0 3 C-2.5654594 5.5654594 -4.47686668 5.54046087 -8 6 C-5.51047079 3.33264727 -3.36591866 1.44253657 0 0 Z " fill="#BBBBBB" transform="translate(21,48)"/>
<path d="M0 0 C0.33 0 0.66 0 1 0 C1 1.98 1 3.96 1 6 C2.98 6.495 2.98 6.495 5 7 C4.34 7.66 3.68 8.32 3 9 C2.01 9 1.02 9 0 9 C0 6.03 0 3.06 0 0 Z " fill="#B9B9B9" transform="translate(53,9)"/>
<path d="M0 0 C-0.33 1.32 -0.66 2.64 -1 4 C-2.32 4 -3.64 4 -5 4 C-5 3.01 -5 2.02 -5 1 C-3 0 -3 0 0 0 Z " fill="#C9C7C7" transform="translate(36,17)"/>
</svg>
